<?xml version="1.0" encoding="utf-8"?>
<!-- Generator: Adobe Illustrator 27.5.0, SVG Export Plug-In . SVG Version: 6.00 Build 0)  -->
<svg version="1.1" xmlns="http://www.w3.org/2000/svg" xmlns:xlink="http://www.w3.org/1999/xlink" x="0px" y="0px"
	 viewBox="0 0 1200 1200" style="enable-background:new 0 0 1200 1200;" xml:space="preserve" width="400" height="400">
<g id="Bg">
	<rect y="0" style="fill:#FFFFFF;" width="1200" height="1200"/>
</g>
<g id="Shadow">
	<g>
		<path style="fill:#FFFFFF;" d="M788.204,199.838H385.673c-51.924,0-94.017,42.899-94.017,95.818v626.011
			c0,52.919,42.093,95.818,94.017,95.818h402.531c51.925,0,94.017-42.899,94.017-95.818V295.656
			C882.221,242.737,840.129,199.838,788.204,199.838z"/>
		<path style="fill:#F5F5F5;" d="M791.295,197.474H388.764c-51.924,0-94.017,42.899-94.017,95.818v626.01
			c0,52.919,42.093,95.818,94.017,95.818h402.531c51.925,0,94.017-42.899,94.017-95.818v-626.01
			C885.312,240.373,843.22,197.474,791.295,197.474z"/>
		<path style="fill:#EAEBEC;" d="M794.386,195.111H391.855c-51.924,0-94.017,42.899-94.017,95.818v626.01
			c0,52.919,42.093,95.818,94.017,95.818h402.531c51.925,0,94.017-42.899,94.017-95.818v-626.01
			C888.403,238.009,846.311,195.111,794.386,195.111z"/>
		<path style="fill:#E0E1E2;" d="M797.477,192.747H394.946c-51.924,0-94.017,42.899-94.017,95.818v626.01
			c0,52.919,42.093,95.818,94.017,95.818h402.531c51.925,0,94.017-42.899,94.017-95.818v-626.01
			C891.494,235.646,849.402,192.747,797.477,192.747z"/>
		<path style="fill:#D6D6D8;" d="M800.568,190.383H398.037c-51.924,0-94.017,42.899-94.017,95.818v626.01
			c0,52.919,42.093,95.818,94.017,95.818h402.531c51.925,0,94.017-42.899,94.017-95.818v-626.01
			C894.585,233.282,852.493,190.383,800.568,190.383z"/>
		<path style="fill:#CCCCCE;" d="M803.659,188.019H401.128c-51.924,0-94.017,42.899-94.017,95.818v626.011
			c0,52.919,42.093,95.818,94.017,95.818h402.531c51.925,0,94.017-42.899,94.017-95.818V283.837
			C897.676,230.918,855.584,188.019,803.659,188.019z"/>
		<path style="fill:#C1C2C5;" d="M806.75,185.656H404.219c-51.924,0-94.017,42.899-94.017,95.818v626.01
			c0,52.919,42.093,95.818,94.017,95.818H806.75c51.925,0,94.017-42.899,94.017-95.818v-626.01
			C900.767,228.554,858.675,185.656,806.75,185.656z"/>
		<path style="fill:#B7B8BB;" d="M809.841,183.292H407.31c-51.924,0-94.017,42.899-94.017,95.818V905.12
			c0,52.919,42.093,95.818,94.017,95.818h402.531c51.925,0,94.017-42.899,94.017-95.818V279.11
			C903.858,226.191,861.766,183.292,809.841,183.292z"/>
	</g>
</g>
<g id="Object">
	<g>
		<g>
			<g>
				<g>
					<path style="fill:#F9F2D4;" d="M407.218,992.189h406.242c52.403,0,94.884-42.481,94.884-94.883V277.399
						c0-52.403-42.48-94.884-94.884-94.884H407.218c-52.403,0-94.883,42.481-94.883,94.884v619.906
						C312.335,949.708,354.816,992.189,407.218,992.189z"/>
				</g>
			</g>
			<g>
				<path style="fill:#282F39;" d="M521.226,330.139c-1.353,0-1.355,2.103,0,2.103C522.58,332.242,522.582,330.139,521.226,330.139z
					"/>
			</g>
			<g>
				<g>
					<path style="fill:#BDB39B;" d="M906.255,270.593h-4.748v-3.012h4.748V270.593z M889.323,270.593H877.14v-3.012h12.183V270.593z
						 M864.954,270.593H852.77v-3.012h12.183V270.593z M840.584,270.593h-12.183v-3.012h12.183V270.593z M816.218,270.593h-12.186
						v-3.012h12.186V270.593z M791.849,270.593h-12.186v-3.012h12.186V270.593z M767.479,270.593h-12.183v-3.012h12.183V270.593z
						 M743.11,270.593h-12.183v-3.012h12.183V270.593z M718.743,270.593h-12.186v-3.012h12.186V270.593z M694.374,270.593h-12.186
						v-3.012h12.186V270.593z M670.005,270.593h-12.183v-3.012h12.183V270.593z M645.636,270.593h-12.183v-3.012h12.183V270.593z
						 M621.269,270.593h-12.186v-3.012h12.186V270.593z M596.9,270.593h-12.186v-3.012H596.9V270.593z M572.53,270.593h-12.183
						v-3.012h12.183V270.593z M548.161,270.593h-12.183v-3.012h12.183V270.593z M523.792,270.593h-12.183v-3.012h12.183V270.593z
						 M499.425,270.593h-12.186v-3.012h12.186V270.593z M475.056,270.593h-12.183v-3.012h12.183V270.593z M450.687,270.593h-12.183
						v-3.012h12.183V270.593z M426.318,270.593h-12.183v-3.012h12.183V270.593z M401.951,270.593h-12.186v-3.012h12.186V270.593z
						 M377.582,270.593h-12.183v-3.012h12.183V270.593z M353.212,270.593h-12.183v-3.012h12.183V270.593z M328.843,270.593H316.66
						v-3.012h12.183V270.593z"/>
				</g>
				<g>
					<path style="fill:#BDB39B;" d="M906.255,428.176h-4.748v-3.012h4.748V428.176z M889.323,428.176H877.14v-3.012h12.183V428.176z
						 M864.954,428.176H852.77v-3.012h12.183V428.176z M840.584,428.176h-12.183v-3.012h12.183V428.176z M816.218,428.176h-12.186
						v-3.012h12.186V428.176z M791.849,428.176h-12.186v-3.012h12.186V428.176z M767.479,428.176h-12.183v-3.012h12.183V428.176z
						 M743.11,428.176h-12.183v-3.012h12.183V428.176z M718.743,428.176h-12.186v-3.012h12.186V428.176z M694.374,428.176h-12.186
						v-3.012h12.186V428.176z M670.005,428.176h-12.183v-3.012h12.183V428.176z M645.636,428.176h-12.183v-3.012h12.183V428.176z
						 M621.269,428.176h-12.186v-3.012h12.186V428.176z M596.9,428.176h-12.186v-3.012H596.9V428.176z M572.53,428.176h-12.183
						v-3.012h12.183V428.176z M548.161,428.176h-12.183v-3.012h12.183V428.176z M523.792,428.176h-12.183v-3.012h12.183V428.176z
						 M499.425,428.176h-12.186v-3.012h12.186V428.176z M475.056,428.176h-12.183v-3.012h12.183V428.176z M450.687,428.176h-12.183
						v-3.012h12.183V428.176z M426.318,428.176h-12.183v-3.012h12.183V428.176z M401.951,428.176h-12.186v-3.012h12.186V428.176z
						 M377.582,428.176h-12.183v-3.012h12.183V428.176z M353.212,428.176h-12.183v-3.012h12.183V428.176z M328.843,428.176H316.66
						v-3.012h12.183V428.176z"/>
				</g>
				<g>
					<path style="fill:#BDB39B;" d="M906.255,585.759h-4.748v-3.012h4.748V585.759z M889.323,585.759H877.14v-3.012h12.183V585.759z
						 M864.954,585.759H852.77v-3.012h12.183V585.759z M840.584,585.759h-12.183v-3.012h12.183V585.759z M816.218,585.759h-12.186
						v-3.012h12.186V585.759z M791.849,585.759h-12.186v-3.012h12.186V585.759z M767.479,585.759h-12.183v-3.012h12.183V585.759z
						 M743.11,585.759h-12.183v-3.012h12.183V585.759z M718.743,585.759h-12.186v-3.012h12.186V585.759z M694.374,585.759h-12.186
						v-3.012h12.186V585.759z M670.005,585.759h-12.183v-3.012h12.183V585.759z M645.636,585.759h-12.183v-3.012h12.183V585.759z
						 M621.269,585.759h-12.186v-3.012h12.186V585.759z M596.9,585.759h-12.186v-3.012H596.9V585.759z M572.53,585.759h-12.183
						v-3.012h12.183V585.759z M548.161,585.759h-12.183v-3.012h12.183V585.759z M523.792,585.759h-12.183v-3.012h12.183V585.759z
						 M499.425,585.759h-12.186v-3.012h12.186V585.759z M475.056,585.759h-12.183v-3.012h12.183V585.759z M450.687,585.759h-12.183
						v-3.012h12.183V585.759z M426.318,585.759h-12.183v-3.012h12.183V585.759z M401.951,585.759h-12.186v-3.012h12.186V585.759z
						 M377.582,585.759h-12.183v-3.012h12.183V585.759z M353.212,585.759h-12.183v-3.012h12.183V585.759z M328.843,585.759H316.66
						v-3.012h12.183V585.759z"/>
				</g>
				<g>
					<path style="fill:#BDB39B;" d="M906.255,743.339h-4.748v-3.012h4.748V743.339z M889.323,743.339H877.14v-3.012h12.183V743.339z
						 M864.954,743.339H852.77v-3.012h12.183V743.339z M840.584,743.339h-12.183v-3.012h12.183V743.339z M816.218,743.339h-12.186
						v-3.012h12.186V743.339z M791.849,743.339h-12.186v-3.012h12.186V743.339z M767.479,743.339h-12.183v-3.012h12.183V743.339z
						 M743.11,743.339h-12.183v-3.012h12.183V743.339z M718.743,743.339h-12.186v-3.012h12.186V743.339z M694.374,743.339h-12.186
						v-3.012h12.186V743.339z M670.005,743.339h-12.183v-3.012h12.183V743.339z M645.636,743.339h-12.183v-3.012h12.183V743.339z
						 M621.269,743.339h-12.186v-3.012h12.186V743.339z M596.9,743.339h-12.186v-3.012H596.9V743.339z M572.53,743.339h-12.183
						v-3.012h12.183V743.339z M548.161,743.339h-12.183v-3.012h12.183V743.339z M523.792,743.339h-12.183v-3.012h12.183V743.339z
						 M499.425,743.339h-12.186v-3.012h12.186V743.339z M475.056,743.339h-12.183v-3.012h12.183V743.339z M450.687,743.339h-12.183
						v-3.012h12.183V743.339z M426.318,743.339h-12.183v-3.012h12.183V743.339z M401.951,743.339h-12.186v-3.012h12.186V743.339z
						 M377.582,743.339h-12.183v-3.012h12.183V743.339z M353.212,743.339h-12.183v-3.012h12.183V743.339z M328.843,743.339H316.66
						v-3.012h12.183V743.339z"/>
				</g>
				<g>
					<path style="fill:#BDB39B;" d="M906.255,889.824h-4.748v-3.012h4.748V889.824z M889.323,889.824H877.14v-3.012h12.183V889.824z
						 M864.954,889.824H852.77v-3.012h12.183V889.824z M840.584,889.824h-12.183v-3.012h12.183V889.824z M816.218,889.824h-12.186
						v-3.012h12.186V889.824z M791.849,889.824h-12.186v-3.012h12.186V889.824z M767.479,889.824h-12.183v-3.012h12.183V889.824z
						 M743.11,889.824h-12.183v-3.012h12.183V889.824z M718.743,889.824h-12.186v-3.012h12.186V889.824z M694.374,889.824h-12.186
						v-3.012h12.186V889.824z M670.005,889.824h-12.183v-3.012h12.183V889.824z M645.636,889.824h-12.183v-3.012h12.183V889.824z
						 M621.269,889.824h-12.186v-3.012h12.186V889.824z M596.9,889.824h-12.186v-3.012H596.9V889.824z M572.53,889.824h-12.183
						v-3.012h12.183V889.824z M548.161,889.824h-12.183v-3.012h12.183V889.824z M523.792,889.824h-12.183v-3.012h12.183V889.824z
						 M499.425,889.824h-12.186v-3.012h12.186V889.824z M475.056,889.824h-12.183v-3.012h12.183V889.824z M450.687,889.824h-12.183
						v-3.012h12.183V889.824z M426.318,889.824h-12.183v-3.012h12.183V889.824z M401.951,889.824h-12.186v-3.012h12.186V889.824z
						 M377.582,889.824h-12.183v-3.012h12.183V889.824z M353.212,889.824h-12.183v-3.012h12.183V889.824z M328.843,889.824H316.66
						v-3.012h12.183V889.824z"/>
				</g>
				<g>
					<path style="fill:#BDB39B;" d="M390.872,992.189h-3.044v-12.053h3.044V992.189z M390.872,968.081h-3.044v-12.053h3.044V968.081
						z M390.872,943.973h-3.044V931.92h3.044V943.973z M390.872,919.867h-3.044v-12.055h3.044V919.867z M390.872,895.759h-3.044
						v-12.053h3.044V895.759z M390.872,871.651h-3.044v-12.053h3.044V871.651z M390.872,847.543h-3.044V835.49h3.044V847.543z
						 M390.872,823.438h-3.044v-12.055h3.044V823.438z M390.872,799.329h-3.044v-12.053h3.044V799.329z M390.872,775.221h-3.044
						v-12.053h3.044V775.221z M390.872,751.113h-3.044V739.06h3.044V751.113z M390.872,727.008h-3.044v-12.055h3.044V727.008z
						 M390.872,702.9h-3.044v-12.053h3.044V702.9z M390.872,678.792h-3.044v-12.053h3.044V678.792z M390.872,654.683h-3.044v-12.053
						h3.044V654.683z M390.872,630.578h-3.044v-12.055h3.044V630.578z M390.872,606.47h-3.044v-12.053h3.044V606.47z
						 M390.872,582.362h-3.044v-12.053h3.044V582.362z M390.872,558.254h-3.044v-12.053h3.044V558.254z M390.872,534.148h-3.044
						v-12.055h3.044V534.148z M390.872,510.04h-3.044v-12.055h3.044V510.04z M390.872,485.932h-3.044v-12.053h3.044V485.932z
						 M390.872,461.824h-3.044v-12.053h3.044V461.824z M390.872,437.716h-3.044v-12.053h3.044V437.716z M390.872,413.61h-3.044
						v-12.055h3.044V413.61z M390.872,389.502h-3.044v-12.053h3.044V389.502z M390.872,365.394h-3.044v-12.053h3.044V365.394z
						 M390.872,341.286h-3.044v-12.053h3.044V341.286z M390.872,317.181h-3.044v-12.055h3.044V317.181z M390.872,293.073h-3.044
						v-12.055h3.044V293.073z M390.872,268.964h-3.044v-12.053h3.044V268.964z M390.872,244.856h-3.044v-12.053h3.044V244.856z
						 M390.872,220.751h-3.044v-12.055h3.044V220.751z M390.872,196.643h-3.044v-12.055h3.044V196.643z"/>
				</g>
				<g>
					<path style="fill:#BDB39B;" d="M537.597,992.189h-3.044v-12.053h3.044V992.189z M537.597,968.081h-3.044v-12.053h3.044V968.081
						z M537.597,943.973h-3.044V931.92h3.044V943.973z M537.597,919.867h-3.044v-12.055h3.044V919.867z M537.597,895.759h-3.044
						v-12.053h3.044V895.759z M537.597,871.651h-3.044v-12.053h3.044V871.651z M537.597,847.543h-3.044V835.49h3.044V847.543z
						 M537.597,823.438h-3.044v-12.055h3.044V823.438z M537.597,799.329h-3.044v-12.053h3.044V799.329z M537.597,775.221h-3.044
						v-12.053h3.044V775.221z M537.597,751.113h-3.044V739.06h3.044V751.113z M537.597,727.008h-3.044v-12.055h3.044V727.008z
						 M537.597,702.9h-3.044v-12.053h3.044V702.9z M537.597,678.792h-3.044v-12.053h3.044V678.792z M537.597,654.683h-3.044v-12.053
						h3.044V654.683z M537.597,630.578h-3.044v-12.055h3.044V630.578z M537.597,606.47h-3.044v-12.053h3.044V606.47z
						 M537.597,582.362h-3.044v-12.053h3.044V582.362z M537.597,558.254h-3.044v-12.053h3.044V558.254z M537.597,534.148h-3.044
						v-12.055h3.044V534.148z M537.597,510.04h-3.044v-12.055h3.044V510.04z M537.597,485.932h-3.044v-12.053h3.044V485.932z
						 M537.597,461.824h-3.044v-12.053h3.044V461.824z M537.597,437.716h-3.044v-12.053h3.044V437.716z M537.597,413.61h-3.044
						v-12.055h3.044V413.61z M537.597,389.502h-3.044v-12.053h3.044V389.502z M537.597,365.394h-3.044v-12.053h3.044V365.394z
						 M537.597,341.286h-3.044v-12.053h3.044V341.286z M537.597,317.181h-3.044v-12.055h3.044V317.181z M537.597,293.073h-3.044
						v-12.055h3.044V293.073z M537.597,268.964h-3.044v-12.053h3.044V268.964z M537.597,244.856h-3.044v-12.053h3.044V244.856z
						 M537.597,220.751h-3.044v-12.055h3.044V220.751z M537.597,196.643h-3.044v-12.055h3.044V196.643z"/>
				</g>
				<g>
					<path style="fill:#BDB39B;" d="M682.977,992.189h-3.045v-12.053h3.045V992.189z M682.977,968.081h-3.045v-12.053h3.045V968.081
						z M682.977,943.973h-3.045V931.92h3.045V943.973z M682.977,919.867h-3.045v-12.055h3.045V919.867z M682.977,895.759h-3.045
						v-12.053h3.045V895.759z M682.977,871.651h-3.045v-12.053h3.045V871.651z M682.977,847.543h-3.045V835.49h3.045V847.543z
						 M682.977,823.438h-3.045v-12.055h3.045V823.438z M682.977,799.329h-3.045v-12.053h3.045V799.329z M682.977,775.221h-3.045
						v-12.053h3.045V775.221z M682.977,751.113h-3.045V739.06h3.045V751.113z M682.977,727.008h-3.045v-12.055h3.045V727.008z
						 M682.977,702.9h-3.045v-12.053h3.045V702.9z M682.977,678.792h-3.045v-12.053h3.045V678.792z M682.977,654.683h-3.045v-12.053
						h3.045V654.683z M682.977,630.578h-3.045v-12.055h3.045V630.578z M682.977,606.47h-3.045v-12.053h3.045V606.47z
						 M682.977,582.362h-3.045v-12.053h3.045V582.362z M682.977,558.254h-3.045v-12.053h3.045V558.254z M682.977,534.148h-3.045
						v-12.055h3.045V534.148z M682.977,510.04h-3.045v-12.055h3.045V510.04z M682.977,485.932h-3.045v-12.053h3.045V485.932z
						 M682.977,461.824h-3.045v-12.053h3.045V461.824z M682.977,437.716h-3.045v-12.053h3.045V437.716z M682.977,413.61h-3.045
						v-12.055h3.045V413.61z M682.977,389.502h-3.045v-12.053h3.045V389.502z M682.977,365.394h-3.045v-12.053h3.045V365.394z
						 M682.977,341.286h-3.045v-12.053h3.045V341.286z M682.977,317.181h-3.045v-12.055h3.045V317.181z M682.977,293.073h-3.045
						v-12.055h3.045V293.073z M682.977,268.964h-3.045v-12.053h3.045V268.964z M682.977,244.856h-3.045v-12.053h3.045V244.856z
						 M682.977,220.751h-3.045v-12.055h3.045V220.751z M682.977,196.643h-3.045v-12.055h3.045V196.643z"/>
				</g>
				<g>
					<path style="fill:#BDB39B;" d="M828.856,992.189h-3.044v-12.053h3.044V992.189z M828.856,968.081h-3.044v-12.053h3.044V968.081
						z M828.856,943.973h-3.044V931.92h3.044V943.973z M828.856,919.867h-3.044v-12.055h3.044V919.867z M828.856,895.759h-3.044
						v-12.053h3.044V895.759z M828.856,871.651h-3.044v-12.053h3.044V871.651z M828.856,847.543h-3.044V835.49h3.044V847.543z
						 M828.856,823.438h-3.044v-12.055h3.044V823.438z M828.856,799.329h-3.044v-12.053h3.044V799.329z M828.856,775.221h-3.044
						v-12.053h3.044V775.221z M828.856,751.113h-3.044V739.06h3.044V751.113z M828.856,727.008h-3.044v-12.055h3.044V727.008z
						 M828.856,702.9h-3.044v-12.053h3.044V702.9z M828.856,678.792h-3.044v-12.053h3.044V678.792z M828.856,654.683h-3.044v-12.053
						h3.044V654.683z M828.856,630.578h-3.044v-12.055h3.044V630.578z M828.856,606.47h-3.044v-12.053h3.044V606.47z
						 M828.856,582.362h-3.044v-12.053h3.044V582.362z M828.856,558.254h-3.044v-12.053h3.044V558.254z M828.856,534.148h-3.044
						v-12.055h3.044V534.148z M828.856,510.04h-3.044v-12.055h3.044V510.04z M828.856,485.932h-3.044v-12.053h3.044V485.932z
						 M828.856,461.824h-3.044v-12.053h3.044V461.824z M828.856,437.716h-3.044v-12.053h3.044V437.716z M828.856,413.61h-3.044
						v-12.055h3.044V413.61z M828.856,389.502h-3.044v-12.053h3.044V389.502z M828.856,365.394h-3.044v-12.053h3.044V365.394z
						 M828.856,341.286h-3.044v-12.053h3.044V341.286z M828.856,317.181h-3.044v-12.055h3.044V317.181z M828.856,293.073h-3.044
						v-12.055h3.044V293.073z M828.856,268.964h-3.044v-12.053h3.044V268.964z M828.856,244.856h-3.044v-12.053h3.044V244.856z
						 M828.856,220.751h-3.044v-12.055h3.044V220.751z M828.856,196.643h-3.044v-12.055h3.044V196.643z"/>
				</g>
			</g>
			<g>
				<path style="fill:#282F39;" d="M535.032,356.083c-0.621-0.679-1.091-1.852-1.407-3.524l-0.938-2.976v-0.311V348.8
					c0-3.445-3.576-15.188-10.728-35.234c-7.152-20.043-12.763-34.863-16.833-44.467v78.76l0.628,1.097
					c0.104,0.213,0.311,0.579,0.628,1.097c0.311,0.524,0.469,1.048,0.469,1.566c0,1.358-0.469,2.507-1.407,3.448
					c-0.944,0.938-2.09,1.407-3.448,1.407c-3.345,0-5.008-3.183-5.008-9.553l-0.158-26.775c-0.104-8.039-0.158-17.015-0.158-26.934
					c0-3.339,0.158-8.194,0.469-14.563c0.317-6.577,0.469-11.432,0.469-14.563c0-4.904,1.882-8.767,5.641-11.587v0.938
					c0.628-0.207,1.042-0.311,1.249-0.311c2.4,0,5.428,4.176,9.083,12.525c2.924,6.683,5.562,13.732,7.908,21.14
					c2.352,7.414,5.453,17.957,9.315,31.63l1.572,5.638c2.394,8.456,4.222,14.512,5.477,18.164
					c2.09-22.444,3.131-48.957,3.131-79.545v-2.035c-0.103-0.628-0.158-1.304-0.158-2.038c0-3.131,1.255-4.697,3.759-4.697
					c1.462,0,2.583,0.576,3.369,1.721c0.78,1.151,1.176,2.614,1.176,4.386v11.743c-0.213,16.077-0.841,33.51-1.883,52.301
					c-1.042,18.791-2.297,29.386-3.759,31.786c-3.028,0.835-4.904,1.255-5.635,1.255
					C536.597,357.101,535.659,356.76,535.032,356.083z"/>
				<path style="fill:#282F39;" d="M580.912,357.022c-2.297-1.724-4.173-4.045-5.635-6.969c-3.028-6.366-4.91-13.308-5.635-20.823
					c-0.944-7.1-1.413-13.939-1.413-20.515c0-1.252,0.055-2.294,0.158-3.131v-2.818c0-0.524-0.055-0.786-0.158-0.786v-2.815
					l0.158-10.963c0.104-3.341,0.518-8.666,1.255-15.971c0.518-5.014,1.718-9.866,3.601-14.566c0.725-2.084,1.669-3.68,2.815-4.773
					c1.151-1.097,2.455-1.645,3.917-1.645c4.173,0,7.932,0.758,11.277,2.269c3.339,1.517,6.153,3.631,8.456,6.342
					c2.083,2.614,3.856,5.821,5.318,9.632c1.462,3.814,2.51,7.856,3.138,12.136c0.621,4.383,0.938,9.029,0.938,13.936v1.252
					c0,3.238,0.049,6.162,0.152,8.77l0.158,8.925c0,30.065-6.994,45.097-20.981,45.097
					C585.712,359.605,583.208,358.746,580.912,357.022z M592.968,350.759c1.566-1.511,2.766-3.576,3.601-6.187
					c1.986-5.322,3.186-11.063,3.607-17.226c0.518-5.325,0.78-9.915,0.78-13.78c0-4.697-0.366-10.853-1.097-18.475
					c-0.628-8.039-0.938-14.039-0.938-18.008v-2.818c-0.213-3.966-1.541-7.411-3.99-10.335c-2.455-2.921-5.459-4.383-9.004-4.383
					c-3.552,0-5.903,2.035-7.049,6.104c-1.042,3.238-1.566,7.414-1.566,12.529c0,1.983,0.049,3.655,0.158,5.011v4.228l-0.317,7.201
					c-0.207,2.193-0.311,4.597-0.311,7.207c0,5.635,0.158,11.222,0.469,16.753c0.414,7.829,1.462,15.45,3.131,22.861
					c1.669,7.728,4.124,11.587,7.359,11.587C589.685,353.028,591.402,352.273,592.968,350.759z"/>
				<path style="fill:#282F39;" d="M635.248,354.125l-0.158-6.107c-0.104-1.773-0.152-3.759-0.152-5.952l0.152-5.322
					c-0.311-1.148-1.097-12.577-2.346-34.293c-1.255-21.712-1.986-35.648-2.193-41.807c-6.056-0.21-9.918-0.835-11.587-1.883
					c-1.151-0.835-1.724-1.773-1.724-2.818c0-0.832,0.548-1.59,1.645-2.269c1.097-0.676,2.218-1.017,3.369-1.017
					c2.918,0,6.47,0.207,10.643,0.628c3.966,0.521,7.518,0.78,10.649,0.78h1.255h1.255c3.229,0,4.849,1.255,4.849,3.759
					c0,1.255-0.524,2.272-1.566,3.052c-1.042,0.786-2.242,1.176-3.6,1.176c-0.938,0-2.297-0.158-4.07-0.469l-3.131-0.628
					l-0.158,0.783l-0.158,0.783c0,9.294,0.889,24.116,2.662,44.473c1.669,19.105,2.51,33.927,2.51,44.47
					c0,1.252-0.548,2.349-1.645,3.287c-1.097,0.941-2.327,1.413-3.68,1.413L635.248,354.125z"/>
				<path style="fill:#282F39;" d="M670.083,357.256c-1.091-0.941-1.694-2.087-1.797-3.445v-4.07v-3.131
					c-0.104-0.941-0.158-2.038-0.158-3.29c0-2.193-0.158-5.532-0.469-10.022l-0.311-10.022c0-5.114,0.152-12.736,0.469-22.864
					c0.414-9.08,0.628-16.699,0.628-22.858c0-1.462-0.158-3.655-0.475-6.579c-0.311-3.028-0.469-5.218-0.469-6.577
					c0-7.411,2.193-11.115,6.579-11.115c3.442,0,7.439,0.676,11.977,2.035c4.545,1.359,6.811,2.973,6.811,4.852
					c0,1.045-0.445,2.013-1.328,2.897c-0.889,0.889-1.956,1.593-3.211,2.114c-4.386-1.566-8.352-2.607-11.904-3.131
					c0.104,1.566,0.158,3.814,0.158,6.732c0,4.179-0.055,7.938-0.158,11.277c-0.311,5.011-0.469,8.767-0.469,11.274l0.469,2.507
					l2.51-0.158c0.835-0.103,1.876-0.158,3.131-0.158c5.008,0,7.518,1.465,7.518,4.386c0,1.151-0.475,2.114-1.413,2.897
					c-0.938,0.783-2.138,1.173-3.6,1.173c-1.876,0-3.345-0.101-4.386-0.311h-3.911c0.207,2.717,0.311,6.683,0.311,11.898
					c0,5.224-0.055,9.921-0.158,14.097c-0.311,6.366-0.469,11.115-0.469,14.249c0,5.846,0.104,8.767,0.317,8.767l5.166-0.158
					c1.773-0.1,3.917-0.155,6.421-0.155c3.966,0,5.952,1.252,5.952,3.759c0,1.465-0.658,2.583-1.962,3.366
					c-1.304,0.786-2.894,1.176-4.776,1.176h-13.311C672.41,358.667,671.179,358.198,670.083,357.256z"/>
				<path style="fill:#282F39;" d="M709.079,356.787c-1.31-1.045-2.065-2.4-2.272-4.073l1.724-2.662
					c0.628,0,1.615,0.213,2.973,0.628c1.566,0.314,2.766,0.469,3.601,0.469c1.883,0,3.576-0.835,5.093-2.504
					c1.511-1.669,2.632-3.862,3.363-6.579c1.359-5.008,2.041-9.498,2.041-13.464c0-6.89-2.193-14.146-6.58-21.767l-1.724-2.973
					c-1.98-3.448-3.655-6.525-5.008-9.242c-1.359-2.711-2.504-5.635-3.448-8.767c-1.249-4.073-1.876-8.145-1.876-12.215
					c0-4.594,1.042-9.394,3.131-14.408c1.042-2.397,2.528-4.356,4.46-5.87c1.931-1.514,4.1-2.269,6.5-2.269
					c1.882,0,3.625,0.6,5.245,1.8c1.62,1.2,2.431,2.635,2.431,4.304c0,0.941-0.372,1.672-1.097,2.193
					c-0.731,0.524-1.621,0.783-2.662,0.783c-1.151,0-2.248-0.314-3.29-0.941c-2.297,0.11-4.124,2.144-5.483,6.11
					c-1.145,3.655-1.718,6.68-1.718,9.08c0,3.031,0.469,6.083,1.407,9.16c0.938,3.083,2.138,5.873,3.601,8.377l3.448,6.266
					l5.477,10.335c1.462,2.924,2.638,6.318,3.527,10.177c0.883,3.866,1.328,7.777,1.328,11.743c0,6.373-1.462,12.428-4.386,18.167
					c-1.462,2.924-3.521,5.27-6.184,7.046c-2.662,1.776-5.611,2.662-8.846,2.662v0.469
					C711.973,358.508,710.383,357.829,709.079,356.787z"/>
			</g>
		</g>
		<g>
			<g>
				<path style="fill:#7CB2E8;" d="M500.858,701.394c-0.378,0-0.747,0.037-1.12,0.057c0.715-2.102,1.12-4.345,1.12-6.688
					c0-11.476-9.303-20.778-20.778-20.778c-4.137,0-7.981,1.223-11.219,3.307c-2.495,0.718-5.621,1.652-9.559,2.883
					c0,0-0.521-3.762-2.329-8.523c-1.111-6.404-5.275-11.909-11.163-15.309c-4.601-3.164-10.699-4.941-18.781-3.64
					c-7.008,1.128-11.615,4.222-14.616,8.204c-3.573,3.855-5.72,8.781-5.72,14.153c0,0.573,0.049,1.135,0.097,1.697
					c-3.033-1.736-6.519-2.771-10.265-2.771c-11.475,0-20.778,9.303-20.778,20.778c0,5.127,1.865,9.812,4.943,13.436
					c-6.615,3.476-11.133,10.404-11.133,18.395c0,7.348,3.824,13.789,9.579,17.484l0.001,0c1.693,1.087,3.552,1.932,5.534,2.492
					c15.241,6.154,60.73,19.906,120.549-4.085c2.601-0.556,5.022-1.595,7.162-3.024l0,0c5.579-3.726,9.257-10.076,9.257-17.288
					C521.637,710.697,512.333,701.394,500.858,701.394z"/>
				<path style="fill:#FFFFFF;" d="M437.526,758.962c-25.381,0-44.166-5.872-53.771-9.734c-2.174-0.631-4.239-1.569-6.137-2.788
					c-6.807-4.369-10.87-11.788-10.87-19.846c0-7.696,3.717-14.791,9.879-19.184c-2.396-3.763-3.689-8.153-3.689-12.646
					c0-13.005,10.579-23.584,23.584-23.584c2.542,0,5.083,0.432,7.514,1.265c0.572-4.877,2.729-9.533,6.22-13.341
					c3.778-4.95,9.27-8.035,16.325-9.17c7.948-1.281,14.92,0.078,20.726,4.036c6.592,3.841,11.09,9.996,12.38,16.934
					c0.814,2.176,1.373,4.145,1.745,5.674c2.247-0.689,4.345-1.315,6.266-1.871c3.732-2.309,8.002-3.527,12.38-3.527
					c13.005,0,23.584,10.579,23.584,23.584c0,1.323-0.113,2.644-0.341,3.953c11.851,1.236,21.12,11.285,21.12,23.457
					c0,7.894-3.927,15.229-10.504,19.622c-2.411,1.61-5.064,2.747-7.893,3.383C480.136,755.535,456.906,758.961,437.526,758.962z
					 M396.523,676.791c-9.91,0-17.972,8.062-17.972,17.972c0,4.246,1.518,8.372,4.276,11.619l2.268,2.671l-3.101,1.63
					c-5.942,3.123-9.633,9.22-9.633,15.911c0,6.138,3.098,11.791,8.289,15.123c1.478,0.949,3.088,1.673,4.784,2.154l0.285,0.098
					c16.222,6.552,60.232,19.265,118.453-4.087l0.458-0.14c2.221-0.474,4.303-1.354,6.191-2.613
					c5.013-3.349,8.007-8.939,8.007-14.954c0-9.91-8.063-17.973-17.973-17.973c-0.194,0-0.386,0.015-0.577,0.029l-4.537,0.248
					l1.337-3.93c0.644-1.894,0.971-3.84,0.971-5.785c0-9.91-8.062-17.972-17.972-17.972c-3.439,0-6.794,0.989-9.701,2.859
					l-0.346,0.223l-0.396,0.115c-2.799,0.805-5.995,1.769-9.498,2.865l-3.163,0.988l-0.454-3.282
					c-0.004-0.031-0.512-3.541-2.173-7.91l-0.142-0.518c-0.943-5.438-4.516-10.307-9.802-13.358l-0.187-0.119
					c-4.595-3.16-10.225-4.23-16.745-3.182c-5.707,0.919-9.9,3.249-12.82,7.123l-0.182,0.219c-3.253,3.51-4.973,7.743-4.973,12.245
					c0,0.47,0.042,0.93,0.082,1.392l0.453,5.331l-4.638-2.589C402.611,677.599,399.625,676.791,396.523,676.791z"/>
			</g>
			<g>
				<path style="fill:#71A1DB;" d="M437.441,757.291c-1.129,0-2.245-0.013-3.348-0.037l0.059-2.793
					c1.127,0.024,2.276,0.039,3.422,0.035c0.473,0,0.947-0.002,1.425-0.006l0.025,2.795
					C438.495,757.29,437.959,757.293,437.441,757.291z M443.955,757.168l-0.107-2.793c1.618-0.062,3.246-0.148,4.84-0.259
					l0.191,2.788C447.258,757.016,445.601,757.104,443.955,757.168z M429.165,757.073c-1.635-0.085-3.29-0.196-4.921-0.331
					l0.231-2.784c1.601,0.133,3.228,0.242,4.834,0.325L429.165,757.073z M453.792,756.501l-0.27-2.78
					c1.587-0.154,3.195-0.333,4.821-0.536l0.346,2.771C457.037,756.163,455.404,756.345,453.792,756.501z M419.335,756.256
					c-1.618-0.185-3.265-0.4-4.892-0.64l0.407-2.765c1.598,0.236,3.214,0.448,4.803,0.629L419.335,756.256z M463.57,755.272
					l-0.427-2.761c1.577-0.243,3.171-0.511,4.783-0.806l0.503,2.748C466.792,754.752,465.172,755.025,463.57,755.272z
					 M409.571,754.819c-1.63-0.295-3.258-0.619-4.842-0.96l0.59-2.731c1.553,0.335,3.151,0.652,4.749,0.941L409.571,754.819z
					 M473.262,753.501l-0.577-2.733c1.564-0.33,3.143-0.684,4.734-1.065l0.649,2.718
					C476.452,752.806,474.85,753.167,473.262,753.501z M399.919,752.735c-1.63-0.413-3.233-0.849-4.767-1.295l0.783-2.682
					c1.501,0.438,3.073,0.865,4.67,1.27L399.919,752.735z M482.845,751.212l-0.719-2.699c1.545-0.412,3.102-0.849,4.673-1.311
					l0.789,2.68C485.994,750.351,484.413,750.794,482.845,751.212z M390.434,749.965c-1.593-0.533-3.161-1.095-4.661-1.67
					l0.999-2.608c1.463,0.56,2.993,1.108,4.549,1.628L390.434,749.965z M492.291,748.433l-0.855-2.659
					c1.523-0.49,3.057-1.004,4.601-1.545l0.923,2.638C495.392,747.414,493.837,747.936,492.291,748.433z M381.117,746.539
					c-0.945-0.433-1.866-0.936-2.736-1.495c-0.581-0.372-1.157-0.781-1.708-1.214l1.723-2.198c0.482,0.377,0.983,0.734,1.494,1.061
					c0.761,0.489,1.566,0.928,2.391,1.306L381.117,746.539z M501.587,745.186l-0.985-2.614c1.357-0.511,2.724-1.043,4.096-1.593
					l0.224-0.069l0.423-0.096l0.651,2.716l-0.362,0.083C504.279,744.156,502.93,744.681,501.587,745.186z M510.884,741.741
					l-1.265-2.491c0.682-0.346,1.35-0.737,1.985-1.161c0.626-0.418,1.232-0.875,1.802-1.36l1.812,2.126
					c-0.654,0.556-1.347,1.08-2.063,1.558C512.429,740.897,511.664,741.344,510.884,741.741z M372.977,740.168
					c-1.085-1.363-2.01-2.852-2.746-4.424l2.532-1.184c0.643,1.374,1.45,2.675,2.4,3.866L372.977,740.168z M518.761,735.045
					l-2.254-1.651c0.9-1.229,1.653-2.56,2.238-3.96l2.578,1.078C520.653,732.114,519.791,733.64,518.761,735.045z M368.599,730.797
					c-0.293-1.444-0.441-2.93-0.441-4.414c-0.001-0.255,0.004-0.515,0.013-0.773l2.793,0.098c-0.009,0.223-0.012,0.447-0.011,0.669
					c0,1.305,0.129,2.604,0.384,3.866L368.599,730.797z M522.752,725.505l-2.759-0.444c0.163-1.016,0.246-2.059,0.246-3.099
					c0-0.488-0.017-0.972-0.052-1.45l2.786-0.202c0.039,0.544,0.06,1.096,0.06,1.652
					C523.034,723.151,522.938,724.343,522.752,725.505z M371.652,721.209l-2.693-0.747c0.465-1.675,1.129-3.296,1.973-4.816
					l2.443,1.356C372.636,718.33,372.057,719.746,371.652,721.209z M519.321,716.049c-0.463-1.445-1.098-2.837-1.889-4.138
					l2.387-1.451c0.905,1.49,1.633,3.083,2.162,4.738L519.321,716.049z M376.035,713.312l-2.06-1.887
					c1.173-1.282,2.499-2.425,3.938-3.402l1.568,2.313C378.22,711.191,377.061,712.191,376.035,713.312z M514.631,708.327
					c-1.071-1.08-2.267-2.035-3.559-2.838l1.477-2.372c1.475,0.919,2.844,2.01,4.066,3.244L514.631,708.327z M377.984,706.703
					c-0.958-1.457-1.742-3.023-2.33-4.655l2.627-0.949c0.515,1.426,1.2,2.795,2.037,4.069L377.984,706.703z M506.955,703.559
					c-1.441-0.477-2.94-0.783-4.454-0.909l0.231-2.784c1.735,0.144,3.451,0.494,5.101,1.041L506.955,703.559z M497.75,702.748
					l0.664-1.957c0.381-1.12,0.662-2.27,0.835-3.414l2.763,0.418c-0.197,1.308-0.518,2.619-0.952,3.896l-0.203-0.069v0.959
					c-0.227,0-0.45,0.016-0.674,0.031L497.75,702.748z M374.479,696.974c-0.087-0.796-0.132-1.61-0.132-2.421
					c-0.001-0.926,0.057-1.863,0.173-2.784l2.771,0.348c-0.101,0.804-0.151,1.623-0.15,2.434c0,0.712,0.038,1.424,0.115,2.118
					L374.479,696.974z M499.385,692.834c-0.133-1.514-0.445-3.012-0.926-4.452l2.648-0.887c0.553,1.647,0.909,3.361,1.062,5.095
					L499.385,692.834z M378.386,687.704l-2.614-0.989c0.615-1.627,1.424-3.18,2.401-4.618l2.311,1.572
					C379.628,684.925,378.923,686.283,378.386,687.704z M496.513,684.271c-0.807-1.288-1.768-2.482-2.853-3.548l1.959-1.993
					c1.24,1.219,2.337,2.584,3.26,4.055L496.513,684.271z M458.146,681.788l-0.228-1.631c-0.003-0.021-0.056-0.396-0.184-1.041
					l1.228-0.241l-0.076-0.245c1.282-0.4,2.479-0.769,3.596-1.111l0.817,2.672c-1.113,0.34-2.306,0.709-3.581,1.107L458.146,681.788
					z M383.465,680.231l-1.884-2.063c1.283-1.172,2.706-2.193,4.228-3.036l1.352,2.445
					C385.83,678.314,384.586,679.207,383.465,680.231z M467.967,678.796l-0.785-2.682l1.097-0.318
					c1.013-0.638,2.079-1.196,3.169-1.66l1.093,2.572c-1.008,0.429-1.992,0.951-2.925,1.55l-0.172,0.11L467.967,678.796z
					 M490.065,677.937c-1.304-0.785-2.698-1.414-4.144-1.87l0.84-2.665c1.657,0.523,3.253,1.243,4.745,2.142L490.065,677.937z
					 M404.704,677.031c-1.389-0.658-2.838-1.148-4.31-1.457l0.575-2.735c1.685,0.354,3.344,0.915,4.932,1.667L404.704,677.031z
					 M391.374,675.862l-0.741-2.693c1.669-0.459,3.401-0.721,5.145-0.78l0.093,2.793
					C394.345,675.233,392.832,675.461,391.374,675.862z M476.904,675.432l-0.456-2.757c1.717-0.284,3.488-0.366,5.2-0.244
					l-0.195,2.786C479.958,675.116,478.405,675.182,476.904,675.432z M456.561,674.527c-0.274-0.876-0.575-1.747-0.896-2.59
					l-0.07-0.259c-0.108-0.626-0.251-1.256-0.424-1.873l2.689-0.758c0.188,0.665,0.344,1.344,0.465,2.021
					c0.323,0.855,0.626,1.737,0.903,2.624L456.561,674.527z M408.141,673.442l-2.786-0.21c0.131-1.733,0.476-3.454,1.027-5.116
					l2.653,0.881C408.555,670.44,408.255,671.936,408.141,673.442z M453.423,665.606c-0.734-1.311-1.632-2.56-2.666-3.713
					l2.08-1.867c1.171,1.306,2.189,2.724,3.025,4.213L453.423,665.606z M410.969,664.875l-2.375-1.471
					c0.785-1.268,1.708-2.481,2.743-3.604c0.104-0.137,0.21-0.274,0.319-0.409l2.181,1.744c-0.104,0.132-0.207,0.262-0.306,0.395
					l-0.095,0.116C412.503,662.652,411.673,663.74,410.969,664.875z M447.351,658.808c-0.71-0.523-1.464-1.016-2.242-1.466
					l-0.092-0.058c-0.535-0.368-1.084-0.711-1.634-1.02l1.369-2.436c0.607,0.341,1.214,0.718,1.804,1.123
					c0.85,0.494,1.674,1.034,2.453,1.609L447.351,658.808z M417.078,657.964l-1.691-2.224c1.353-1.028,2.863-1.914,4.489-2.631
					l1.129,2.555C419.578,656.294,418.257,657.067,417.078,657.964z M439.174,654.459c-1.434-0.438-2.953-0.736-4.511-0.884
					l0.263-2.782c1.746,0.167,3.451,0.501,5.065,0.994L439.174,654.459z M425.388,654.231l-0.617-2.725
					c0.656-0.148,1.334-0.28,2.034-0.394c1.016-0.163,2.026-0.283,3.002-0.357l0.21,2.786c-0.898,0.067-1.829,0.178-2.767,0.329
					C426.609,653.974,425.989,654.095,425.388,654.231z"/>
			</g>
			<g>
				<path style="fill:#534741;" d="M463.508,710.185c-0.18,3.633-3.272,6.433-6.905,6.253c-3.633-0.18-6.433-3.272-6.253-6.905
					c0.18-3.633,3.272-6.433,6.905-6.253C460.889,703.46,463.688,706.551,463.508,710.185z"/>
			</g>
			<g>
				<path style="fill:#534741;" d="M418.296,706.212c-0.18,3.634-3.272,6.433-6.905,6.253c-3.634-0.18-6.433-3.272-6.253-6.905
					c0.18-3.633,3.272-6.433,6.905-6.253C415.677,699.487,418.476,702.579,418.296,706.212z"/>
			</g>
			<g>
				<path style="fill:#534741;" d="M443.401,725.997c0.069-1.387-1.033-2.568-2.464-2.639c-1.239-0.061-2.27,0.753-2.579,1.87
					l-0.068-0.012c-0.252,1.407-0.621,2.815-1.105,4.202c-0.16,0.461-0.352,0.968-0.573,1.226c-0.22,0.255-0.683,0.486-1.299,0.655
					c-2.348,0.646-5.183-0.037-7.409-1.751c-0.756-0.587-1.221-1.132-1.38-1.614c-0.158-0.484-0.358-0.945-0.559-1.404
					c-0.328-0.751-0.513-1.196-0.493-1.616l-0.093-0.005c-0.162-1.181-1.123-2.135-2.392-2.198c-1.272-0.063-2.322,0.791-2.6,1.951
					l-0.091-0.005c-0.005,0.091,0.03,0.154,0.029,0.243c-0.008,0.068-0.047,0.124-0.05,0.193c-0.019,0.376,0.06,0.729,0.198,1.057
					c0.174,0.935,0.447,1.779,0.742,2.455c0.137,0.311,0.278,0.622,0.388,0.957c0.498,1.502,1.522,2.837,3.127,4.083
					c2.416,1.868,5.268,2.924,8.083,3.064c1.304,0.065,2.608-0.068,3.857-0.409c1.644-0.446,2.943-1.205,3.868-2.269
					c0.801-0.936,1.23-2.007,1.544-2.921c0.567-1.632,1.01-3.305,1.311-4.978l-0.028-0.005
					C443.372,726.082,443.399,726.044,443.401,725.997z"/>
			</g>
			<g>
				<path d="M381.796,781.837c-0.492-0.487-0.872-1.063-1.139-1.729c-0.225-0.626-0.372-1.383-0.443-2.275
					c-0.07-0.891-0.057-1.792,0.039-2.703c0.116-1.548,0.461-3.529,1.035-5.94c0.136-0.577,0.4-1.562,0.793-2.952l0.663-2.345
					c0.213-0.664,0.422-1.355,0.626-2.075c0.414-1.464,0.827-2.594,1.238-3.389c0.031-0.394,0.102-0.788,0.214-1.186
					c0.421-1.49,1.319-2.535,2.696-3.138c1.376-0.603,2.921-0.662,4.634-0.178c0.645,0.182,1.191,0.524,1.64,1.025
					c0.447,0.503,0.597,1.014,0.451,1.535c-0.07,0.248-0.226,0.419-0.467,0.511c-0.241,0.092-0.509,0.098-0.807,0.014
					c-0.248-0.07-0.505-0.184-0.769-0.338c-0.264-0.155-0.413-0.317-0.445-0.487l-0.484-0.137l0.02-0.075
					c-0.918-0.259-1.744-0.277-2.476-0.055c-0.538,0.196-1.037,0.631-1.495,1.306c-0.176,0.245-0.349,0.572-0.518,0.979
					c-0.169,0.409-0.302,0.786-0.4,1.133c-0.082,0.192-0.206,0.586-0.373,1.182l-0.294,1.324l-0.32,1.275
					c-0.105,0.373-0.278,0.794-0.517,1.261c-0.3,0.586-0.485,1.003-0.555,1.251l-0.251,0.893c-0.274,0.968-0.611,2.307-1.014,4.015
					c-0.375,1.422-0.612,2.883-0.714,4.382c-0.148,1.379-0.042,2.615,0.319,3.709c0.329,1.111,1.003,1.81,2.02,2.098
					c0.422,0.119,1.007,0.044,1.754-0.228c0.796-0.258,1.331-0.348,1.604-0.272c0.347,0.099,0.655,0.386,0.922,0.864
					c-0.26,0.919-0.807,1.528-1.642,1.828c-0.771,0.264-1.621,0.332-2.55,0.205c-0.511-0.091-0.916-0.178-1.213-0.262
					C382.883,782.666,382.288,782.324,381.796,781.837z"/>
				<path d="M394.694,785.124c-0.458,0.163-0.913,0.197-1.368,0.099c-0.302-0.066-0.533-0.254-0.689-0.565
					c-0.157-0.311-0.203-0.618-0.137-0.921c0.461-2.117,1.162-4.92,2.105-8.411c0.967-3.723,1.653-6.516,2.058-8.382l0.057-0.264
					c0.194-1.621,0.376-2.822,0.545-3.603c0.521-2.395,1.221-3.497,2.104-3.304c0.252,0.054,0.452,0.197,0.601,0.427
					c0.147,0.23,0.194,0.471,0.139,0.724c-0.066,0.302-0.207,0.772-0.425,1.411c-0.212,0.615-0.354,1.085-0.426,1.413
					c-0.367,1.689-0.685,3.216-0.956,4.583c-0.265,1.342-0.581,2.857-0.949,4.545c-0.208,0.35-0.386,0.867-0.534,1.546l-0.099,0.454
					l-0.725,2.971c-0.242,0.872-0.486,1.874-0.732,3.008c-0.379,1.739-0.152,2.699,0.68,2.881c0.051,0.011,0.134,0.022,0.25,0.034
					c0.116,0.013,0.275,0.04,0.476,0.083c0.232,0.025,0.524,0.075,0.878,0.152c1.361,0.296,1.96,0.822,1.795,1.578
					c-0.054,0.253-0.214,0.441-0.48,0.569c-0.265,0.127-0.568,0.18-0.906,0.159C397.118,785.809,396.03,785.414,394.694,785.124z"/>
				<path d="M406.026,787.246c-0.496-0.509-0.866-1.148-1.111-1.916c-0.497-1.67-0.691-3.437-0.583-5.3
					c0.041-1.769,0.187-3.456,0.438-5.061c0.048-0.307,0.1-0.559,0.157-0.759l0.107-0.688c0.02-0.127,0.017-0.193-0.008-0.197
					l0.108-0.689l0.455-2.671c0.153-0.811,0.457-2.094,0.915-3.851c0.318-1.204,0.797-2.343,1.435-3.417
					c0.258-0.482,0.547-0.836,0.87-1.059c0.323-0.224,0.661-0.308,1.019-0.253c1.018,0.159,1.908,0.488,2.665,0.985
					c0.758,0.497,1.366,1.12,1.823,1.87c0.411,0.717,0.72,1.568,0.933,2.555c0.211,0.986,0.312,2.013,0.302,3.081
					c-0.014,1.095-0.115,2.241-0.302,3.438l-0.048,0.306c-0.123,0.792-0.222,1.507-0.295,2.148l-0.302,2.185
					c-1.146,7.339-3.426,10.743-6.842,10.21C407.098,788.058,406.52,787.753,406.026,787.246z M409.207,786.175
					c0.439-0.309,0.811-0.767,1.115-1.372c0.686-1.224,1.198-2.58,1.535-4.068c0.33-1.28,0.569-2.392,0.716-3.335
					c0.179-1.147,0.325-2.664,0.437-4.553c0.153-1.986,0.306-3.463,0.456-4.431l0.108-0.689c0.1-0.976-0.094-1.868-0.581-2.675
					c-0.488-0.806-1.165-1.279-2.031-1.413c-0.867-0.136-1.518,0.272-1.953,1.222c-0.378,0.749-0.664,1.75-0.859,2.998
					c-0.075,0.484-0.126,0.893-0.153,1.229l-0.161,1.032l-0.351,1.746c-0.135,0.527-0.251,1.11-0.35,1.746
					c-0.215,1.376-0.39,2.746-0.524,4.108c-0.197,1.927-0.232,3.827-0.107,5.701c0.114,1.95,0.566,2.986,1.355,3.109
					C408.318,786.605,408.767,786.486,409.207,786.175z"/>
				<path d="M420.819,789.258c-0.465-0.312-0.83-0.739-1.094-1.28c-0.523-1.132-0.817-2.387-0.88-3.765
					c-0.078-1.197-0.047-2.619,0.096-4.263c0.161-2.782,0.415-6.177,0.76-10.187l0.217-2.972c-0.013-0.156-0.003-0.414,0.028-0.774
					c0.032-0.98,0.058-1.573,0.075-1.779c0.278-0.519,0.571-0.766,0.88-0.74c0.308,0.026,0.565,0.282,0.769,0.765
					c0.204,0.484,0.283,0.995,0.237,1.535l-0.903,10.485c-0.088,1.027-0.116,2.398-0.082,4.108c-0.002,2.124-0.029,3.493-0.082,4.11
					c-0.163,1.901,0.564,2.922,2.182,3.061c1.85,0.159,3.371-6.674,4.561-20.5l0.186-2.158l0.03-0.348
					c-0.019-0.078-0.023-0.182-0.012-0.311c0.027-0.309,0.116-0.527,0.27-0.657c0.153-0.128,0.436-0.176,0.847-0.14
					c0.334,0.029,0.59,0.147,0.766,0.357c0.176,0.21,0.278,0.446,0.308,0.707c0.012,0.156,0,0.453-0.037,0.889
					c-0.036,0.412-0.13,1.064-0.285,1.956c-0.167,0.736-0.274,1.375-0.32,1.914c-0.051,0.592-0.122,1.116-0.212,1.575l-0.216,1.612
					l-0.026,0.309c0.016,0.105,0.019,0.222,0.008,0.35c-0.982,11.41-3.131,16.972-6.446,16.688
					C421.825,789.752,421.284,789.569,420.819,789.258z"/>
				<path d="M433.809,785.124l0.166-6.111c0.051-1.804,0.093-3.828,0.126-6.073c0.012-0.824-0.048-2.103-0.177-3.832
					c-0.103-1.884-0.151-3.032-0.144-3.446c0.004-0.335,0.151-0.63,0.438-0.883c0.288-0.255,0.598-0.38,0.934-0.373
					c0.903,0.013,1.771,0.225,2.603,0.637c0.833,0.412,1.566,0.984,2.201,1.715c1.344,1.594,2.222,3.334,2.633,5.222
					c0.219,0.958,0.322,1.901,0.308,2.829c-0.004,0.336-0.022,0.645-0.052,0.929l-0.053,1.043l-0.031,2.127
					c-0.024,1.651-0.094,2.954-0.211,3.906c-0.173,1.287-0.486,2.431-0.939,3.43c-0.532,1.076-1.293,2.033-2.286,2.869
					c-0.47,0.38-1.069,0.76-1.796,1.135l-2.785-0.04C434.072,790.198,433.762,788.503,433.809,785.124z M437.91,787.872
					c0.442-0.264,0.822-0.626,1.138-1.086c0.263-0.407,0.509-0.927,0.737-1.555c0.228-0.629,0.399-1.239,0.51-1.831
					c0.248-1.156,0.407-2.341,0.476-3.552c0.03-0.31,0.05-0.76,0.058-1.354c0.111-7.789-1.339-11.873-4.351-12.251
					c-0.197,1.156-0.307,2.498-0.329,4.019c-0.023,1.624,0.039,4.463,0.188,8.515c0.128,3.587,0.178,6.439,0.147,8.554l-0.013,0.928
					C436.989,788.265,437.468,788.137,437.91,787.872z"/>
				<path d="M450.138,789.506c0.254-0.556,0.277-2.752,0.069-6.591c-0.049-0.902-0.165-1.876-0.351-2.926l-0.177-1.114
					c-0.115-0.691-0.181-1.216-0.202-1.577l-0.054-1.005c-0.293-0.629-0.828-1.803-1.604-3.517c-0.778-1.714-1.405-3.152-1.88-4.315
					c-0.563-1.338-0.858-2.253-0.885-2.742l-0.011-0.193l0.853-0.706c0.441,0.029,0.935,0.571,1.483,1.625
					c0.463,0.93,0.994,2.271,1.593,4.021c0.598,1.75,0.901,2.676,0.906,2.779c0.087-0.289,0.242-1.266,0.461-2.931
					c0.22-1.665,0.489-3.14,0.808-4.422c0.369-1.285,0.785-1.941,1.249-1.966c0.258-0.014,0.488,0.051,0.689,0.195
					c0.202,0.144,0.309,0.332,0.322,0.565c0.071,1.313-0.19,3.187-0.781,5.621c-0.631,2.644-0.917,4.543-0.854,5.703l0.629,11.629
					c0.093,1.726-0.284,2.611-1.135,2.658C450.827,790.321,450.452,790.056,450.138,789.506z"/>
				<path d="M476.43,786.384c-0.417-0.144-0.671-0.416-0.763-0.819c0.427-0.679,0.367-2.213-0.178-4.603
					c-0.328-1.432-0.918-3.494-1.77-6.184c-0.849-2.557-1.446-4.59-1.791-6.099l-0.398-2.092c-0.113-0.609-0.258-1.303-0.436-2.083
					c-0.161-0.703-0.491-1.568-0.989-2.592c-0.56-1.063-0.892-1.821-0.996-2.273c-0.201-0.881,0.666-1.541,2.603-1.984l0.567-0.129
					c1.357-0.31,2.633-0.166,3.829,0.435c0.966,0.52,1.877,1.384,2.735,2.59c0.583,0.819,1.198,2.002,1.842,3.548
					c0.473,1.374,0.801,2.463,0.985,3.267l0.276,1.207l0.405,1.773c-0.028,0.111-0.03,0.219-0.006,0.319
					c0.046,0.202,0.092,0.349,0.141,0.443c0.048,0.096,0.089,0.217,0.123,0.369c0.185,0.804,0.284,1.793,0.301,2.967
					c0.016,1.173-0.069,2.39-0.258,3.65c-0.499,3.026-1.321,5.278-2.465,6.754c-0.68,0.845-1.474,1.369-2.379,1.576
					C477.305,786.541,476.845,786.526,476.43,786.384z M479.979,780.989c0.454-1.255,0.718-2.592,0.79-4.011
					c0.116-2.62-0.114-5.186-0.688-7.701c-0.31-1.357-0.776-2.813-1.394-4.364c-0.633-1.496-1.545-2.769-2.737-3.82
					c-0.567-0.506-1.214-0.854-1.946-1.044c-0.731-0.191-1.511-0.191-2.342-0.001l0.01,0.037c0.517,2.264,1.448,5.649,2.796,10.156
					c1.342,4.484,2.28,7.894,2.814,10.232l0.819,3.582C478.899,783.267,479.525,782.244,479.979,780.989z"/>
				<path d="M497.682,780.92c-0.326-0.083-0.564-0.358-0.717-0.823c-0.242-0.734-0.776-1.944-1.599-3.629l-0.401-0.724l-3.82,0.643
					c0.038,0.613,0.204,1.821,0.498,3.624c0.247,1.25,0.276,2.122,0.086,2.619c-0.1,0.277-0.309,0.468-0.627,0.572
					c-0.294,0.097-0.594,0.093-0.899-0.01c-0.306-0.104-0.503-0.29-0.591-0.56l0.013-0.208l-0.012-0.159
					c-0.45-6.829-1.265-13.443-2.443-19.843c-0.032-0.098-0.074-0.267-0.126-0.509c-0.052-0.24-0.138-0.586-0.258-1.034
					c-0.225-0.93-0.383-1.68-0.473-2.247c-0.091-0.567-0.084-1.018,0.024-1.352l1.25-0.411c0.343-0.112,0.663-0.129,0.96-0.051
					c0.297,0.08,0.495,0.265,0.591,0.56c0.611,1.862,1.778,4.548,3.499,8.053c1.729,3.614,2.844,6.18,3.342,7.699
					c0.049,0.147,0.234,0.507,0.558,1.08c0.308,0.524,0.489,0.871,0.545,1.042c0.057,0.172,0.42,0.867,1.092,2.085
					c0.607,1.104,0.967,1.828,1.079,2.171l0.013,0.037c0.177,0.539,0.093,0.946-0.25,1.222
					C498.452,780.952,498.008,781.003,497.682,780.92z M493.717,773.181c-0.725-2.205-1.846-4.958-3.365-8.261l-1.622-3.702
					c0.836,6.105,1.542,10.692,2.116,13.761c0.448,0.124,1.59-0.033,3.427-0.474C494.079,774.161,493.893,773.721,493.717,773.181z"
					/>
				<path d="M505.729,777.408c0.05-0.609-0.674-2.683-2.174-6.222c-0.352-0.832-0.794-1.708-1.325-2.632l-0.544-0.988
					c-0.343-0.611-0.585-1.082-0.726-1.415l-0.392-0.926c-0.489-0.493-1.391-1.413-2.705-2.762c-1.314-1.348-2.392-2.488-3.234-3.42
					c-0.985-1.067-1.572-1.827-1.764-2.278l-0.075-0.178l0.563-0.953c0.423-0.123,1.073,0.218,1.946,1.024
					c0.752,0.718,1.707,1.798,2.865,3.24c1.158,1.442,1.757,2.212,1.797,2.306c-0.017-0.301-0.204-1.271-0.562-2.913
					c-0.359-1.641-0.607-3.118-0.744-4.434c-0.09-1.334,0.08-2.092,0.507-2.273c0.237-0.101,0.475-0.118,0.714-0.051
					c0.238,0.067,0.403,0.208,0.493,0.421c0.513,1.211,0.905,3.062,1.176,5.552c0.305,2.701,0.682,4.586,1.135,5.654l4.543,10.723
					c0.675,1.592,0.62,2.553-0.164,2.885C506.655,777.941,506.211,777.82,505.729,777.408z"/>
			</g>
		</g>
		<g>
			<g>
				<path style="fill:#534741;" d="M796.325,554.477c-13.178-0.095-26.354-0.188-39.53-0.281
					c-0.111,11.641-0.446,23.286-0.265,34.922c0.146,9.36,4.128,16.384,12.827,19.892c8.176,0.143,15.339-0.911,22.505-4.05
					c2.557-2.604,4.288-6.355,4.646-10.634L796.325,554.477z"/>
				<path style="fill:#F6AD41;" d="M798.613,478.534c-13.06-9.156-33.244-8.904-45.006,0.562
					c-12.118,9.751-17.734,30.744-11.422,45.63c4.272,10.076,9.699,19.663,14.609,29.469c13.176,0.093,26.352,0.186,39.53,0.281
					c1.902-7.383,5.502-13.949,9.433-20.426C818.619,512.861,815.669,490.491,798.613,478.534z"/>
				<path style="fill:#FFFFFF;" d="M748.454,492.698c-0.425,1.328-0.658,2.533,0.79,3.058c0.717,0.26,2.267-0.004,2.523-0.503
					c5.943-11.559,16.325-16.024,30.851-17.107C768.687,473.369,752.042,481.512,748.454,492.698z"/>
			</g>
			<g>
				<g>
					<path style="fill:#EAB82B;" d="M725.469,502.654c-4.291,1.276-7.049-0.106-11.441-2.197
						C719.231,499.03,722.519,498.211,725.469,502.654z"/>
				</g>
				<g>
					<path style="fill:#EAB82B;" d="M734.669,483.426c-4.409-0.777-6.258-3.246-9.251-7.08
						C730.711,477.395,734.018,478.133,734.669,483.426z"/>
				</g>
				<g>
					<path style="fill:#EAB82B;" d="M750.943,468.85c-2.696-3.575-2.365-6.641-1.941-11.487
						C752.158,461.739,754.075,464.534,750.943,468.85z"/>
				</g>
				<g>
					<path style="fill:#EAB82B;" d="M776.297,460.709c-1.817-4.092-0.801-7.004,0.708-11.628
						C779.09,454.057,780.325,457.213,776.297,460.709z"/>
				</g>
				<g>
					<path style="fill:#EAB82B;" d="M805.531,468.7c0.893-4.387,3.409-6.171,7.32-9.063
						C811.664,464.901,810.839,468.188,805.531,468.7z"/>
				</g>
				<g>
					<path style="fill:#EAB82B;" d="M841.36,509.32c-3.477,1.906-6.122,1.225-10.314,0.236
						C835.283,507.348,837.977,506.025,841.36,509.32z"/>
				</g>
				<g>
					<path style="fill:#EAB82B;" d="M837.414,484.309c-2.676,2.926-5.399,3.134-9.687,3.55
						C831.026,484.402,833.148,482.281,837.414,484.309z"/>
				</g>
				<g>
					<path style="fill:#EAB82B;" d="M719.568,532.832c2.069-3.382,4.703-4.105,8.833-5.33
						C725.821,531.524,724.141,534.01,719.568,532.832z"/>
				</g>
				<g>
					<path style="fill:#EAB82B;" d="M823.167,529.052c3.371,2.683,6.433,2.401,6.906,5.724c0.127,0.888-0.584,1.212-1.311,1.149
						C825.91,535.682,824.181,534.203,823.167,529.052z"/>
				</g>
			</g>
			<g>
				<g>
					<path style="fill:#534741;" d="M800.65,505.067c0.525,2.946-1.438,5.761-4.384,6.286c-2.946,0.525-5.76-1.438-6.286-4.384
						c-0.525-2.946,1.438-5.76,4.384-6.286C797.311,500.158,800.125,502.121,800.65,505.067z"/>
				</g>
				<g>
					<path style="fill:#534741;" d="M763.669,510.214c0.525,2.946-1.438,5.76-4.384,6.286c-2.946,0.525-5.76-1.438-6.286-4.384
						c-0.525-2.946,1.438-5.761,4.384-6.286C760.33,505.305,763.144,507.268,763.669,510.214z"/>
				</g>
				<g>
					<path style="fill:#534741;" d="M787.444,521.45c-0.2-1.125-1.302-1.869-2.462-1.662c-1.004,0.179-1.681,1.022-1.723,1.975
						l-0.057,0.003c0.057,1.174,0.021,2.371-0.112,3.573c-0.043,0.399-0.104,0.841-0.233,1.088c-0.13,0.245-0.458,0.515-0.921,0.765
						c-1.763,0.951-4.162,0.926-6.263-0.039c-0.715-0.332-1.188-0.683-1.404-1.04c-0.216-0.359-0.462-0.692-0.707-1.022
						c-0.401-0.542-0.632-0.864-0.693-1.205l-0.076,0.013c-0.347-0.917-1.294-1.505-2.323-1.322
						c-1.031,0.184-1.716,1.062-1.725,2.043l-0.074,0.013c0.013,0.074,0.053,0.118,0.068,0.189c0.006,0.056-0.015,0.108-0.005,0.164
						c0.054,0.305,0.183,0.574,0.354,0.811c0.312,0.718,0.686,1.344,1.048,1.831c0.167,0.224,0.338,0.447,0.488,0.696
						c0.676,1.112,1.743,1.995,3.26,2.697c2.281,1.053,4.762,1.374,7.046,0.967c1.058-0.188,2.079-0.535,3.017-1.039
						c1.236-0.66,2.138-1.508,2.683-2.532c0.47-0.898,0.616-1.835,0.699-2.626c0.154-1.413,0.201-2.836,0.134-4.232l-0.023,0.001
						C787.436,521.524,787.451,521.488,787.444,521.45z"/>
				</g>
			</g>
			<g>
				<path d="M727.429,638.869c-0.125-0.303-0.145-0.653-0.061-1.044c1.25-5.843,2.194-10.8,2.833-14.873
					c-0.647-0.255-1.112-0.414-1.39-0.473c-1.146-0.246-1.992-0.325-2.536-0.238c-0.336,1.567-0.716,3.956-1.141,7.169
					c-0.494,3.402-0.891,5.803-1.19,7.201c-0.058,0.279-0.199,0.52-0.418,0.721c-0.218,0.203-0.453,0.276-0.705,0.222
					c-0.364-0.08-0.562-0.792-0.593-2.145c-0.041-1.996,0.448-6.058,1.468-12.185c0.685-4.151,1.532-8.589,2.543-13.313
					c0.157-0.873,0.406-2.107,0.748-3.701c0.108-0.502,0.399-0.703,0.874-0.6c0.279,0.059,0.551,0.191,0.814,0.393
					c0.263,0.202,0.447,0.404,0.551,0.6c-0.303,0.871-0.583,1.908-0.841,3.109c-0.25,1.175-0.501,2.612-0.747,4.313
					c-0.33,1.949-0.598,3.411-0.808,4.389l-0.163,0.755c-0.076,0.218-0.146,0.481-0.212,0.786c-0.06,0.281-0.11,0.651-0.15,1.109
					c0.169,0.036,0.451,0.081,0.849,0.137c0.397,0.056,0.797,0.098,1.201,0.126c0.94,0.112,1.634,0.218,2.081,0.314
					c0.521-2.433,0.975-4.689,1.361-6.769l1.416-7.021l0.242-1.133c0.363,0.078,0.671,0.211,0.925,0.397
					c0.252,0.184,0.426,0.391,0.525,0.616c0.185,0.363,0.225,0.927,0.119,1.692l-0.206,0.966c-0.515,2.403-1.36,7.032-2.535,13.885
					c-1.064,6.204-1.925,10.845-2.584,13.918c-0.084,0.392-0.277,0.716-0.581,0.973c-0.304,0.258-0.623,0.35-0.959,0.277
					C727.799,639.364,727.554,639.175,727.429,638.869z"/>
				<path d="M742.965,641.345c-0.283-0.245-0.384-0.635-0.303-1.173c0.125-0.847,0.198-2.312,0.217-4.389l-0.036-0.915l-4.106-1.261
					c-0.267,0.625-0.702,1.905-1.306,3.839c-0.376,1.36-0.782,2.24-1.216,2.637c-0.235,0.226-0.537,0.31-0.905,0.256
					c-0.339-0.05-0.635-0.202-0.886-0.456c-0.252-0.254-0.353-0.536-0.308-0.849l0.116-0.2l0.068-0.163
					c2.945-6.991,5.422-13.95,7.433-20.876c0.016-0.114,0.059-0.303,0.126-0.568c0.068-0.265,0.154-0.648,0.259-1.154
					c0.24-1.034,0.455-1.854,0.647-2.463c0.191-0.607,0.422-1.049,0.695-1.327l1.442,0.215c0.397,0.058,0.721,0.199,0.977,0.426
					c0.255,0.226,0.358,0.508,0.308,0.847c-0.318,2.149-0.496,5.39-0.531,9.72c-0.081,4.438-0.25,7.535-0.51,9.287
					c-0.026,0.17-0.021,0.62,0.016,1.347c0.044,0.671,0.053,1.107,0.023,1.304c-0.029,0.198-0.014,1.067,0.047,2.609
					c0.054,1.395,0.05,2.291-0.008,2.687l-0.006,0.041c-0.094,0.624-0.378,0.985-0.856,1.089
					C743.711,641.758,743.245,641.588,742.965,641.345z M742.876,631.706c0.378-2.544,0.633-5.83,0.769-9.857l0.231-4.474
					c-2.203,6.466-3.781,11.361-4.737,14.687c0.382,0.346,1.593,0.757,3.633,1.232C742.749,632.858,742.784,632.329,742.876,631.706
					z"/>
				<path d="M750.708,642.474c-0.229-1.542-0.22-3.652,0.028-6.328l0.439-3.792c0.163-1.134,0.309-2.398,0.439-3.792
					c-0.133-0.416-0.186-0.779-0.158-1.093l0.013-0.128c0.334-0.514,0.59-1.725,0.768-3.633l0.225-1.959
					c0.087-0.624,0.166-1.32,0.238-2.089c0.156-1.68,0.165-3.014,0.028-4.003c0.122-0.39,0.296-0.727,0.523-1.005
					c0.227-0.282,0.483-0.409,0.768-0.382l1.878,0.174c0.797,0.074,1.478,0.316,2.044,0.727c0.564,0.414,0.973,0.96,1.225,1.643
					c0.46,1.221,0.617,2.628,0.469,4.223c-0.105,1.139-0.205,2.033-0.293,2.686c-0.135,0.819-0.346,1.56-0.638,2.224
					c-0.119,0.362-0.269,0.657-0.448,0.884c-0.179,0.228-0.427,0.497-0.743,0.813c-0.444,0.447-1.14,0.84-2.09,1.183
					c-0.39,0.166-0.891,0.307-1.504,0.42l-0.425,4.569l-0.169,2.742l-0.037,1.331c-0.034,1.605-0.103,2.963-0.206,4.074
					c-0.032,0.341-0.201,0.618-0.509,0.834c-0.306,0.215-0.645,0.307-1.015,0.272L750.708,642.474z M757.314,620.519
					c0.077-0.825,0.094-1.47,0.05-1.932c-0.054-0.35-0.142-0.639-0.264-0.865c-0.123-0.227-0.32-0.424-0.591-0.593
					c-0.297-0.2-0.632-0.316-1.001-0.351c0.002-0.028-0.152-0.057-0.466-0.085l-0.226,2.433c-0.156,1.681-0.281,3.175-0.375,4.488
					c-0.137,1.479-0.213,2.45-0.226,2.906l-0.084,0.898l-0.008,0.086C755.826,627.403,756.89,625.074,757.314,620.519z"/>
				<path d="M763.721,643.467c-0.313-1.529-0.414-3.636-0.309-6.321l0.235-3.811c0.103-1.139,0.181-2.41,0.236-3.81
					c-0.156-0.407-0.228-0.768-0.214-1.081l0.005-0.129c0.307-0.531,0.499-1.754,0.573-3.669l0.121-1.969
					c0.053-0.627,0.095-1.327,0.125-2.099c0.067-1.684,0.005-3.018-0.186-3.999c0.102-0.396,0.258-0.741,0.471-1.031
					c0.211-0.294,0.46-0.433,0.746-0.421l1.885,0.073c0.799,0.032,1.493,0.239,2.079,0.619c0.586,0.38,1.023,0.906,1.312,1.575
					c0.524,1.195,0.756,2.591,0.693,4.19c-0.044,1.143-0.095,2.042-0.149,2.698c-0.09,0.827-0.263,1.578-0.518,2.254
					c-0.101,0.37-0.234,0.671-0.4,0.907c-0.167,0.238-0.4,0.521-0.699,0.852c-0.42,0.471-1.094,0.901-2.025,1.293
					c-0.38,0.187-0.873,0.354-1.479,0.5l-0.18,4.587l-0.022,2.745l0.033,1.333c0.051,1.605,0.055,2.961,0.01,4.076
					c-0.013,0.343-0.167,0.63-0.462,0.862c-0.296,0.231-0.628,0.339-0.999,0.324L763.721,643.467z M769.149,621.192
					c0.032-0.829,0.014-1.474-0.054-1.934c-0.073-0.348-0.176-0.63-0.309-0.85c-0.135-0.22-0.343-0.406-0.623-0.562
					c-0.308-0.181-0.646-0.282-1.017-0.297c0.001-0.028-0.157-0.048-0.469-0.061l-0.097,2.444c-0.067,1.685-0.111,3.185-0.135,4.5
					c-0.059,1.486-0.082,2.458-0.071,2.916l-0.036,0.9l-0.002,0.086C768.03,628.144,768.968,625.762,769.149,621.192z"/>
				<path d="M778.193,643.093c0.304-0.606,0.423-3.038,0.354-7.297c-0.016-1.001-0.105-2.086-0.268-3.256l-0.149-1.241
					c-0.098-0.771-0.151-1.355-0.157-1.757l-0.019-1.115c-0.298-0.709-0.841-2.028-1.63-3.961c-0.789-1.932-1.423-3.551-1.902-4.861
					c-0.569-1.504-0.856-2.529-0.865-3.072l-0.003-0.214l0.974-0.746c0.487,0.05,1.012,0.669,1.575,1.861
					c0.474,1.051,1.007,2.557,1.596,4.521c0.589,1.963,0.885,3.002,0.886,3.116c0.109-0.315,0.321-1.391,0.633-3.226
					c0.314-1.835,0.674-3.456,1.079-4.865c0.464-1.408,0.953-2.116,1.468-2.125c0.284-0.005,0.537,0.077,0.754,0.246
					c0.216,0.167,0.329,0.38,0.332,0.637c0.023,1.458-0.343,3.523-1.1,6.194c-0.81,2.903-1.204,4.995-1.184,6.283l0.211,12.907
					c0.032,1.915-0.425,2.88-1.368,2.896C778.924,644.025,778.519,643.715,778.193,643.093z"/>
				<path d="M807.122,640.967c-0.453-0.184-0.716-0.501-0.793-0.952c0.514-0.724,0.543-2.427,0.087-5.104
					c-0.274-1.607-0.8-3.924-1.578-6.953c-0.782-2.883-1.317-5.171-1.606-6.861l-0.311-2.338c-0.088-0.681-0.205-1.459-0.353-2.334
					c-0.135-0.789-0.447-1.765-0.936-2.928c-0.554-1.211-0.874-2.069-0.961-2.577c-0.167-0.987,0.833-1.664,3.003-2.034l0.634-0.109
					c1.521-0.259,2.925-0.02,4.211,0.718c1.037,0.635,1.992,1.647,2.867,3.035c0.596,0.943,1.202,2.29,1.82,4.04
					c0.438,1.548,0.734,2.775,0.888,3.677l0.231,1.352l0.339,1.986c-0.039,0.124-0.047,0.241-0.028,0.354
					c0.039,0.226,0.082,0.392,0.13,0.501c0.046,0.109,0.084,0.246,0.114,0.414c0.155,0.904,0.204,2.005,0.15,3.303
					c-0.054,1.3-0.224,2.641-0.51,4.025c-0.739,3.316-1.788,5.757-3.145,7.322c-0.804,0.892-1.715,1.424-2.729,1.598
					C808.081,641.195,807.573,641.152,807.122,640.967z M811.382,635.215c0.581-1.36,0.954-2.823,1.122-4.389
					c0.29-2.891,0.194-5.746-0.286-8.565c-0.26-1.521-0.685-3.16-1.273-4.916c-0.609-1.695-1.539-3.16-2.795-4.397
					c-0.595-0.593-1.291-1.019-2.088-1.275c-0.798-0.254-1.661-0.303-2.591-0.145l0.007,0.042c0.433,2.536,1.256,6.341,2.468,11.414
					c1.208,5.042,2.035,8.874,2.482,11.497l0.685,4.014C810.047,637.671,810.803,636.575,811.382,635.215z"/>
				<path d="M830.838,636.368c-0.355-0.116-0.6-0.437-0.735-0.963c-0.215-0.83-0.719-2.206-1.51-4.127l-0.39-0.829l-4.272,0.437
					c-0.002,0.681,0.095,2.029,0.29,4.044c0.185,1.4,0.153,2.369-0.092,2.904c-0.129,0.299-0.375,0.495-0.734,0.588
					c-0.332,0.087-0.664,0.061-0.994-0.075c-0.33-0.137-0.535-0.357-0.613-0.662l0.029-0.228l-0.001-0.177
					c-0.01-7.586-0.437-14.961-1.282-22.125c-0.028-0.109-0.063-0.3-0.103-0.571c-0.041-0.269-0.111-0.658-0.213-1.162
					c-0.18-1.046-0.302-1.884-0.362-2.52c-0.06-0.633-0.019-1.131,0.124-1.495l1.411-0.363c0.387-0.101,0.743-0.097,1.066,0.013
					c0.323,0.109,0.528,0.328,0.613,0.66c0.543,2.104,1.641,5.157,3.295,9.161c1.654,4.12,2.702,7.038,3.145,8.753
					c0.043,0.166,0.222,0.577,0.541,1.234c0.303,0.602,0.479,0.998,0.529,1.192c0.05,0.195,0.403,0.989,1.058,2.385
					c0.592,1.264,0.939,2.091,1.038,2.478l0.011,0.041c0.158,0.611,0.036,1.055-0.364,1.334
					C831.687,636.457,831.191,636.482,830.838,636.368z M827.005,627.523c-0.644-2.492-1.687-5.617-3.13-9.378l-1.53-4.211
					c0.489,6.813,0.94,11.937,1.355,15.373c0.487,0.171,1.761,0.077,3.826-0.279C827.336,628.634,827.161,628.133,827.005,627.523z"
					/>
				<path d="M839.861,633.138c0.103-0.669-0.535-3.018-1.912-7.052c-0.323-0.946-0.742-1.951-1.257-3.014l-0.524-1.135
					c-0.33-0.702-0.561-1.243-0.69-1.621l-0.36-1.056c-0.501-0.584-1.426-1.673-2.772-3.268c-1.345-1.595-2.447-2.939-3.305-4.037
					c-1.004-1.258-1.595-2.143-1.77-2.658l-0.07-0.203l0.698-1.009c0.479-0.103,1.169,0.325,2.072,1.285
					c0.775,0.854,1.745,2.122,2.911,3.81c1.166,1.687,1.767,2.583,1.805,2.691c0.006-0.332-0.124-1.422-0.392-3.265
					c-0.267-1.841-0.424-3.495-0.472-4.959c0.007-1.482,0.253-2.308,0.741-2.474c0.27-0.091,0.535-0.092,0.793,0.001
					c0.259,0.094,0.428,0.261,0.513,0.504c0.472,1.38,0.758,3.456,0.86,6.232c0.123,3.01,0.392,5.124,0.809,6.34l4.175,12.215
					c0.62,1.813,0.483,2.871-0.41,3.175C840.842,633.8,840.361,633.631,839.861,633.138z"/>
			</g>
		</g>
		<g>
			<g>
				<g>
					<path style="fill:#BFDDD5;" d="M706.697,803.749c0,0-28.797,21.087-38.728,64.344c0,0,31.981,38.063,64.91,43.021
						c0,0,28.863-22.591,40.733-64.256C773.612,846.858,748.211,813.352,706.697,803.749z"/>
				</g>
				<g>
					<path style="fill:#BFDDD5;" d="M731.88,917.982c-2.299-0.347-4.658-0.846-7.012-1.482l0.785-2.896
						c2.242,0.608,4.488,1.083,6.674,1.412L731.88,917.982z M736.162,917.215l-1.85-2.363l0.692-0.542
						c0.185-0.143,1.866-1.469,4.507-3.956l2.057,2.184c-2.738,2.581-4.522,3.985-4.716,4.137L736.162,917.215z M718.076,914.288
						c-2.148-0.814-4.352-1.756-6.546-2.801l1.289-2.709c2.121,1.01,4.247,1.92,6.319,2.705L718.076,914.288z M705.23,908.206
						c-1.995-1.127-4.034-2.363-6.062-3.673l1.629-2.52c1.978,1.277,3.965,2.482,5.909,3.581L705.23,908.206z M746.582,907.518
						l-2.184-2.059c1.563-1.657,3.116-3.393,4.618-5.162l2.287,1.941C749.768,904.047,748.179,905.823,746.582,907.518z
						 M693.328,900.541c-1.862-1.343-3.758-2.776-5.637-4.262l1.861-2.353c1.844,1.458,3.704,2.865,5.529,4.182L693.328,900.541z
						 M755.748,896.732l-2.379-1.826c1.399-1.824,2.773-3.708,4.083-5.599l2.467,1.709
						C758.581,892.946,757.179,894.87,755.748,896.732z M682.244,891.789c-1.773-1.518-3.548-3.098-5.273-4.692l2.035-2.203
						c1.699,1.569,3.445,3.123,5.19,4.618L682.244,891.789z M763.805,885.105l-2.547-1.586c1.218-1.955,2.402-3.964,3.518-5.968
						l2.621,1.459C766.257,881.058,765.048,883.108,763.805,885.105z M671.872,882.221c-1.694-1.681-3.35-3.384-4.92-5.062
						l2.19-2.051c1.546,1.651,3.176,3.327,4.844,4.982L671.872,882.221z M770.689,872.747l-2.689-1.33
						c1.021-2.065,2.001-4.179,2.912-6.282l2.752,1.193C772.733,868.476,771.732,870.635,770.689,872.747z M662.245,871.862
						l-1.367-1.627l0.725-3.156c0.238-1.037,0.486-2.063,0.744-3.077l2.908,0.74c-0.252,0.99-0.496,1.993-0.729,3.008l-0.391,1.7
						l0.406,0.482L662.245,871.862z M776.311,859.767l-2.809-1.053c0.808-2.155,1.569-4.356,2.264-6.542l2.859,0.908
						C777.915,855.314,777.136,857.564,776.311,859.767z M667.14,858.086l-2.863-0.895c0.706-2.26,1.478-4.514,2.294-6.699
						l2.811,1.051C668.583,853.676,667.83,855.878,667.14,858.086z M777.656,846.88l-1.286-1.696
						c-0.114-0.15-1.159-1.522-3.05-3.684l2.258-1.976c1.918,2.192,2.988,3.59,3.184,3.848l1.285,1.695L777.656,846.88z
						 M671.974,845.13l-2.748-1.201c0.942-2.156,1.955-4.313,3.012-6.408l2.68,1.35C673.885,840.919,672.895,843.025,671.974,845.13
						z M768.608,836.423c-1.6-1.633-3.273-3.257-4.974-4.828l2.035-2.203c1.737,1.604,3.446,3.264,5.081,4.932L768.608,836.423z
						 M678.201,832.784l-2.6-1.498c1.175-2.039,2.422-4.07,3.706-6.038l2.512,1.641
						C680.565,828.809,679.347,830.792,678.201,832.784z M758.431,827.017c-1.775-1.487-3.599-2.94-5.42-4.321l1.813-2.391
						c1.86,1.41,3.722,2.894,5.533,4.411L758.431,827.017z M685.762,821.206l-2.416-1.779c1.401-1.902,2.871-3.78,4.368-5.583
						l2.309,1.916C688.562,817.518,687.128,819.35,685.762,821.206z M747.386,818.65c-1.907-1.301-3.865-2.564-5.819-3.752
						l1.559-2.563c1.999,1.215,4.001,2.506,5.952,3.836L747.386,818.65z M735.559,811.463c-2.034-1.091-4.115-2.132-6.185-3.094
						l1.266-2.721c2.12,0.986,4.252,2.053,6.337,3.17L735.559,811.463z M694.597,810.576l-2.188-2.053
						c1.662-1.77,3.356-3.458,5.035-5.018l2.041,2.197C697.857,807.216,696.212,808.856,694.597,810.576z M723.026,805.641
						c-2.157-0.851-4.344-1.638-6.499-2.339l0.928-2.854c2.214,0.721,4.459,1.529,6.671,2.401L723.026,805.641z M709.894,801.375
						c-0.807-0.209-1.62-0.406-2.439-0.596l-1.563-0.361l-1.188,0.868l-1.772-2.42l2.295-1.681l2.902,0.67
						c0.845,0.195,1.684,0.4,2.516,0.615L709.894,801.375z"/>
				</g>
				<g>
					<g>
						<path style="fill:#FFFFFF;" d="M740.337,816.892c0,0-40.735,52.525-48.004,74.797l2.973,2.364
							c0,0,44.384-72.924,49.236-74.767L740.337,816.892z"/>
					</g>
					<g>
						<path style="fill:#FFFFFF;" d="M679.786,835.927c0,0,54.128,41.155,77.131,48.179l2.112-3.275
							c0,0-74.851-44.329-76.657-49.316L679.786,835.927z"/>
					</g>
					<g>
						<path style="fill:#FFFFFF;" d="M704.995,823.951c-3.473,1.029-4.063,9.371-1.318,18.632
							c2.745,9.261,7.785,15.934,11.258,14.904c3.473-1.029,4.063-9.371,1.318-18.632
							C713.508,829.594,708.467,822.922,704.995,823.951z M713.713,853.366c-2.203,0.653-5.668-4.48-7.738-11.465
							c-2.07-6.985-1.963-13.177,0.241-13.83c2.203-0.653,5.667,4.48,7.738,11.465C716.024,846.522,715.916,852.713,713.713,853.366
							z"/>
					</g>
					<g>
						<path style="fill:#FFFFFF;" d="M747.67,848.391c-1.029-3.473-9.371-4.063-18.632-1.318
							c-9.261,2.745-15.934,7.785-14.904,11.258c1.029,3.473,9.371,4.063,18.632,1.318
							C742.027,856.904,748.699,851.864,747.67,848.391z M718.255,857.109c-0.653-2.203,4.48-5.667,11.465-7.738
							c6.985-2.07,13.177-1.963,13.83,0.241c0.653,2.203-4.48,5.667-11.465,7.738C725.099,859.42,718.908,859.313,718.255,857.109z"
							/>
					</g>
					<g>
						<path style="fill:#FFFFFF;" d="M724.118,890.711c3.473-1.029,4.063-9.371,1.318-18.632
							c-2.745-9.261-7.785-15.934-11.258-14.904c-3.473,1.029-4.063,9.371-1.318,18.632
							C715.604,885.068,720.645,891.741,724.118,890.711z M715.399,861.296c2.203-0.653,5.667,4.48,7.738,11.465
							c2.07,6.985,1.963,13.177-0.241,13.83c-2.203,0.653-5.667-4.48-7.738-11.465C713.088,868.141,713.196,861.949,715.399,861.296
							z"/>
					</g>
					<g>
						<path style="fill:#FFFFFF;" d="M681.442,866.271c1.029,3.473,9.371,4.063,18.632,1.318
							c9.261-2.745,15.934-7.785,14.904-11.258c-1.029-3.473-9.371-4.063-18.632-1.318
							C687.086,857.758,680.413,862.799,681.442,866.271z M710.857,857.553c0.653,2.203-4.48,5.667-11.465,7.738
							c-6.985,2.07-13.177,1.963-13.83-0.241c-0.653-2.203,4.48-5.667,11.465-7.738C704.013,855.242,710.204,855.35,710.857,857.553
							z"/>
					</g>
				</g>
			</g>
			<g>
				<path d="M633.774,899.225l3.102-3.258l3.103-3.258c1.107-1.201,2.76-3.045,4.953-5.533c2.176-2.471,3.826-4.314,4.951-5.533
					l0.148-0.162c0.43-0.465,0.871-0.856,1.324-1.166c0.554-0.385,1.065-0.363,1.529,0.066c1.256,1.158,1.879,2.478,1.871,3.963
					c-0.01,1.484-0.625,2.891-1.848,4.217c-0.745,0.807-1.736,1.451-2.977,1.934c-1.24,0.481-2.354,0.664-3.343,0.549
					c0.396,1.658,0.331,3.266-0.192,4.822c-0.523,1.557-1.396,2.998-2.619,4.324c-0.579,0.629-1.513,1.209-2.803,1.746
					c-1.545,0.633-2.987,0.775-4.33,0.434c-0.785-0.227-1.502-0.637-2.146-1.232l-0.107-0.098
					C633.567,900.278,633.36,899.674,633.774,899.225z M639.269,900.711c1.149-0.203,2.161-0.777,3.036-1.729
					c0.76-0.824,1.392-1.645,1.893-2.459c0.502-0.813,0.811-1.5,0.927-2.057c0.116-0.521,0.185-0.99,0.202-1.406
					c0.016-0.414-0.014-0.723-0.09-0.928l-0.141-0.277l-0.969-0.895c-1.811,2.145-4.501,5.154-8.071,9.025
					C637.049,900.67,638.12,900.913,639.269,900.711z M647.867,889.334c0.731-0.254,1.543-0.633,2.438-1.133
					c0.235-0.148,0.556-0.318,0.963-0.506l0.867-0.941c0.496-0.539,0.777-1.24,0.847-2.106c0.067-0.865-0.148-1.529-0.65-1.992
					c-0.251-0.232-0.633-0.068-1.146,0.486c-1.09,1.184-2.049,2.258-2.871,3.223l-2.697,3.035
					C646.182,889.723,646.932,889.702,647.867,889.334z"/>
				<path d="M642.264,906.19c0.373-0.451,0.85-0.438,1.434,0.043l0.311,0.256l0.26,0.262c0.15,0.123,0.292,0.162,0.426,0.115
					c0.133-0.049,0.301-0.195,0.504-0.44c0.262-0.32,0.654-0.834,1.176-1.541c0.316-0.5,0.917-1.361,1.803-2.59
					c2.205-3.02,3.912-5.262,5.121-6.73c0.434-0.525,0.84-0.998,1.215-1.416l1.215-1.416c0.512-0.619,0.91-1.16,1.195-1.621
					c-0.363-0.172-0.611-0.315-0.742-0.422c-0.451-0.373-0.492-0.785-0.119-1.236c0.186-0.225,0.49-0.307,0.912-0.244
					c0.421,0.065,0.88,0.236,1.374,0.518c0.876,0.471,1.607,0.945,2.19,1.428c0.225,0.186,0.352,0.424,0.381,0.715
					c0.027,0.293-0.045,0.541-0.214,0.748c-0.171,0.207-0.38,0.336-0.626,0.385c-0.246,0.051-0.463-0.002-0.65-0.156
					c-0.113-0.094-0.201-0.182-0.26-0.262l-0.227-0.185c-0.188-0.156-0.359-0.227-0.514-0.211c-0.154,0.016-0.324,0.135-0.51,0.361
					c-1.506,1.824-3.657,4.664-6.455,8.52c-0.521,0.709-1.269,1.768-2.24,3.178c-0.621,0.943-1.302,1.867-2.046,2.77l-0.886,1.072
					c0.129,0.074,0.326,0.219,0.589,0.438c0.79,0.65,0.913,1.307,0.372,1.965l-0.141,0.17l-1.102-0.104
					c-0.018-0.016-0.084-0.061-0.195-0.137c-0.111-0.076-0.307-0.23-0.59-0.463c-0.633-0.459-1.033-0.758-1.203-0.898
					C642.384,907.709,641.799,906.755,642.264,906.19z"/>
				<path d="M654.295,915.663c0.346-1.322,0.822-2.596,1.428-3.816l0.537-1.148c1.516-3.221,2.34-5.084,2.475-5.592l-0.352-0.262
					c-0.422,0.568-0.818,1.078-1.186,1.533l-1.203,1.613c-1.951,2.621-3.287,4.803-4.007,6.547l-0.913,0.551l-0.82-0.611
					l-0.055-0.723l1.494-1.943c1.31-1.762,3.209-4.496,5.699-8.207c2.682-3.93,4.592-6.658,5.727-8.184
					c0.701-0.938,1.373-1.168,2.018-0.686c1.057,0.785,1.718,1.703,1.984,2.754c0.267,1.051,0.037,2.065-0.692,3.041l-1.529,2.055
					c-0.219,0.293-0.519,0.594-0.9,0.902c-0.381,0.309-0.719,0.537-1.01,0.684l-1.344,0.641l-1.125,0.531l-0.379,0.813l-1.139,2.389
					c-0.848,1.711-1.494,3.129-1.939,4.258c-0.443,1.127-0.764,2.211-0.961,3.25l-0.087,0.483c-0.096,0.539-0.23,0.924-0.405,1.158
					c-0.146,0.195-0.332,0.324-0.559,0.383c-0.226,0.059-0.438,0.016-0.633-0.129C653.991,917.625,653.948,916.864,654.295,915.663z
					 M661.992,902.54c1.025-0.744,1.842-1.525,2.453-2.346c0.467-0.627,0.824-1.272,1.078-1.935c0.133-0.385,0.15-0.744,0.051-1.078
					c-0.103-0.334-0.318-0.625-0.651-0.873l-0.169,0.104l-0.254,0.221l-2.52,3.504c-0.719,1.047-1.521,2.166-2.41,3.359
					C660.161,903.6,660.969,903.282,661.992,902.54z"/>
				<path d="M661.095,921.084l0.761-1.207c0.211-0.357,0.457-0.75,0.741-1.176l0.72-1.014c0.088-0.264,1.416-2.588,3.987-6.969
					c2.571-4.383,4.233-7.185,4.991-8.41c-1.148-0.824-1.818-1.447-2.008-1.867c-0.115-0.311-0.103-0.567,0.031-0.77
					c0.108-0.162,0.313-0.238,0.613-0.228c0.301,0.01,0.563,0.09,0.787,0.238c0.566,0.379,1.23,0.881,1.986,1.502
					c0.704,0.615,1.359,1.125,1.969,1.531l0.244,0.162l0.243,0.164c0.628,0.418,0.78,0.871,0.456,1.357
					c-0.163,0.244-0.394,0.375-0.699,0.391c-0.306,0.018-0.59-0.063-0.852-0.238c-0.184-0.121-0.427-0.326-0.73-0.617l-0.529-0.529
					l-0.131,0.133l-0.133,0.131c-1.203,1.807-2.952,4.801-5.244,8.988c-2.151,3.928-3.91,6.918-5.277,8.967
					c-0.162,0.242-0.41,0.385-0.744,0.426s-0.636-0.027-0.898-0.203L661.095,921.084z"/>
				<path d="M675.245,923.487l1.088-1.779l0.883-1.432l0.057-0.094l0.186-0.316c0.119-0.156,0.246-0.348,0.383-0.58
					c0.023-0.043,0.023-0.113-0.002-0.213c-0.027-0.102-0.027-0.172-0.004-0.215l0.02-0.031c-0.131-0.02-0.332-0.109-0.603-0.27
					c-0.275-0.16-0.586-0.4-0.937-0.719c-0.114-0.096-0.42-0.346-0.917-0.75l-2.129,3.627c-0.322,0.547-0.795,1.428-1.424,2.643
					c-0.615,1.193-1.09,2.074-1.422,2.643c-0.186,0.315-0.432,0.539-0.734,0.672c-0.305,0.133-0.594,0.117-0.867-0.041
					c-0.398-0.236-0.455-0.791-0.166-1.668c0.301-0.898,0.828-1.988,1.58-3.271l1.563-2.518c0.44-0.703,0.895-1.453,1.365-2.254
					l0.314-0.535l0.259-0.441c0.198-0.336,0.315-0.563,0.358-0.68l0.092-0.158l1.168-1.775c0.469-0.799,1.135-2.006,1.997-3.619
					c0.862-1.615,1.528-2.82,1.997-3.619c0.148-0.254,0.363-0.424,0.643-0.516c0.277-0.09,0.545-0.061,0.797,0.088
					c0.672,0.393,0.639,1.221-0.102,2.484l-2.358,3.873c-0.733,1.154-1.526,2.455-2.378,3.906c0.254,0.291,0.791,0.676,1.611,1.158
					l1.168,0.685c0.115-0.102,0.211-0.217,0.283-0.342c0.594-1.01,1.406-2.539,2.441-4.59c0.938-1.938,1.748-3.484,2.426-4.641
					c0.137-0.232,0.34-0.375,0.611-0.428c0.269-0.053,0.533-0.004,0.785,0.145c0.146,0.086,0.326,0.262,0.538,0.527l0.209,0.293
					c-1.752,2.986-3.985,7.033-6.7,12.141l-4.399,8.146c-0.173,0.295-0.42,0.461-0.739,0.5c-0.318,0.039-0.627-0.029-0.922-0.201
					C672.548,928.903,673.209,926.958,675.245,923.487z"/>
				<path d="M680.477,936.106c-0.249-0.334-0.302-0.682-0.159-1.045c0.695-0.303,1.469-1.531,2.316-3.688
					c0.51-1.293,1.148-3.217,1.918-5.77c0.701-2.449,1.32-4.355,1.857-5.715l0.805-1.846c0.236-0.535,0.493-1.154,0.77-1.857
					c0.252-0.635,0.455-1.486,0.611-2.551c0.129-1.129,0.275-1.896,0.436-2.305c0.314-0.795,1.344-0.848,3.09-0.16l0.512,0.201
					c1.225,0.482,2.142,1.277,2.756,2.383c0.476,0.92,0.727,2.08,0.752,3.48c0.02,0.949-0.133,2.201-0.454,3.752
					c-0.364,1.324-0.689,2.348-0.975,3.074l-0.429,1.09l-0.631,1.6c-0.08,0.072-0.139,0.154-0.174,0.244
					c-0.072,0.182-0.115,0.322-0.127,0.422c-0.014,0.1-0.047,0.219-0.102,0.354c-0.283,0.727-0.734,1.553-1.348,2.477
					c-0.613,0.924-1.328,1.83-2.146,2.711c-2.006,2.096-3.848,3.414-5.529,3.957c-0.981,0.295-1.879,0.281-2.695-0.039
					C681.077,936.696,680.726,936.44,680.477,936.106z M686.125,933.789c1.023-0.736,1.942-1.639,2.756-2.709
					c1.487-1.98,2.679-4.105,3.571-6.375c0.482-1.225,0.897-2.609,1.241-4.15c0.304-1.504,0.271-2.984-0.101-4.441
					c-0.172-0.697-0.49-1.314-0.959-1.852c-0.471-0.539-1.079-0.955-1.828-1.25l-0.014,0.033c-0.803,2.043-1.883,5.182-3.234,9.418
					c-1.346,4.213-2.434,7.375-3.264,9.486l-1.273,3.232C684.066,934.991,685.101,934.526,686.125,933.789z"/>
				<path d="M699.804,943.221c-0.209-0.24-0.244-0.582-0.11-1.025c0.21-0.701,0.45-1.928,0.724-3.678l0.082-0.779l-3.31-1.568
					c-0.301,0.496-0.826,1.521-1.574,3.078c-0.486,1.103-0.936,1.795-1.352,2.078c-0.227,0.16-0.49,0.195-0.795,0.104
					c-0.281-0.084-0.512-0.25-0.691-0.494c-0.18-0.246-0.232-0.496-0.155-0.754l0.122-0.154l0.078-0.129
					c3.346-5.537,6.295-11.106,8.845-16.703c0.028-0.094,0.087-0.248,0.178-0.463c0.09-0.215,0.21-0.529,0.36-0.941
					c0.328-0.844,0.611-1.508,0.85-1.998c0.236-0.488,0.484-0.834,0.75-1.035l1.191,0.359c0.326,0.098,0.584,0.258,0.772,0.48
					c0.188,0.223,0.239,0.473,0.156,0.752c-0.535,1.775-1.084,4.488-1.647,8.137c-0.614,3.738-1.14,6.328-1.576,7.775
					c-0.042,0.141-0.093,0.521-0.15,1.141c-0.046,0.57-0.093,0.939-0.142,1.102c-0.049,0.164-0.143,0.9-0.281,2.207
					c-0.127,1.185-0.24,1.94-0.338,2.268l-0.012,0.035c-0.154,0.514-0.44,0.783-0.855,0.811
					C700.384,943.662,700.011,943.461,699.804,943.221z M700.917,935.078c0.633-2.102,1.254-4.844,1.865-8.225l0.745-3.748
					c-2.655,5.186-4.593,9.121-5.808,11.813c0.279,0.338,1.25,0.834,2.912,1.486C700.667,936.034,700.763,935.592,700.917,935.078z"
					/>
				<path d="M707.847,944.867c0.371-0.441,0.947-2.438,1.725-5.986c0.184-0.834,0.322-1.752,0.418-2.754l0.12-1.061
					c0.069-0.658,0.142-1.154,0.214-1.488l0.204-0.928c-0.107-0.648-0.3-1.852-0.575-3.609c-0.275-1.758-0.484-3.227-0.625-4.406
					c-0.175-1.361-0.213-2.268-0.113-2.721l0.038-0.18l0.955-0.426c0.393,0.137,0.708,0.754,0.941,1.853
					c0.188,0.965,0.333,2.32,0.436,4.066c0.105,1.744,0.146,2.666,0.126,2.76c0.151-0.24,0.538-1.092,1.158-2.555
					c0.621-1.459,1.237-2.736,1.85-3.824c0.66-1.078,1.205-1.57,1.635-1.477c0.238,0.053,0.432,0.17,0.578,0.352
					c0.147,0.184,0.197,0.381,0.15,0.596c-0.267,1.213-0.977,2.856-2.129,4.924c-1.242,2.25-1.98,3.91-2.217,4.98l-2.359,10.754
					c-0.349,1.596-0.918,2.307-1.703,2.135C708.271,945.785,707.994,945.45,707.847,944.867z"/>
			</g>
		</g>
	</g>
</g>
</svg>
